<svg width="50" height="50" viewBox="0 0 50 50" fill="none" xmlns="http://www.w3.org/2000/svg">
<path fill-rule="evenodd" clip-rule="evenodd" d="M14.7863 23.5158C15.8908 23.5158 16.7863 22.6204 16.7863 21.5158V13C16.7863 11.8954 17.6817 11 18.7863 11H30.2137C31.3183 11 32.2137 11.8954 32.2137 13V21.5158C32.2137 22.6204 33.1092 23.5158 34.2137 23.5158H44C45.1046 23.5158 46 24.4112 46 25.5158V38C46 39.1046 45.1046 40 44 40H5C3.89543 40 3 39.1046 3 38V25.5158C3 24.4112 3.89543 23.5158 5 23.5158H14.7863ZM24.5 35C26.9853 35 29 32.9853 29 30.5C29 28.0147 26.9853 26 24.5 26C22.0147 26 20 28.0147 20 30.5C20 32.9853 22.0147 35 24.5 35Z" fill="white"/>
</svg>
