<?xml version="1.0" encoding="utf-8"?>
<!-- Generator: Adobe Illustrator 24.0.0, SVG Export Plug-In . SVG Version: 6.00 Build 0)  -->
<svg version="1.1" id="icons_set" xmlns="http://www.w3.org/2000/svg" xmlns:xlink="http://www.w3.org/1999/xlink" x="0px" y="0px"
	 viewBox="0 0 50 50" style="enable-background:new 0 0 50 50;" xml:space="preserve">
<style type="text/css">
	.st0{fill:#FFFFFF;}
</style>
<title>Datum</title>
<path class="st0" d="M25,3.1C12.9,3.1,3.1,12.9,3.1,25C3.1,37.1,12.9,47,25,47c12.1,0,21.9-9.8,21.9-21.9C46.9,12.9,37.1,3.1,25,3.1
	z M44.3,25H26.4c0-0.8-0.6-1.4-1.4-1.4V5.7C35.6,5.7,44.3,14.4,44.3,25z M5.6,25C5.6,25,5.6,25,5.6,25l18,0c0,0,0,0,0,0
	c0,0.8,0.6,1.4,1.4,1.4v18C14.3,44.4,5.6,35.7,5.6,25z"/>
</svg>
