<svg width="50" height="50" viewBox="0 0 50 50" fill="none" xmlns="http://www.w3.org/2000/svg">
<path d="M38.8 41.5L26.3 27.7C25 26.2 25 23.9 26.3 22.3L38.8 8.49999C41.3 5.69999 45.6 7.69999 45.6 11.6V38.3C45.6 42.3 41.3 44.3 38.8 41.5Z" fill="white"/>
<path d="M11.2 8.49999L23.7 22.3C25 23.8 25 26.1 23.7 27.7L11.2 41.5C8.7 44.3 4.4 42.3 4.4 38.4V11.6C4.4 7.69999 8.7 5.69999 11.2 8.49999Z" fill="white"/>
<path fill-rule="evenodd" clip-rule="evenodd" d="M29.3914 23.6935C29.5607 24.5045 29.0405 25.2991 28.2295 25.4684L27.9343 24.0538C28.2296 25.4684 28.2291 25.4685 28.2295 25.4684L28.2313 25.468L28.2326 25.4677L28.2338 25.4675C28.2339 25.4674 28.234 25.4674 28.2326 25.4677L28.2313 25.468L28.2031 25.4744C28.1756 25.4808 28.1305 25.4917 28.0704 25.5074C27.9498 25.5389 27.7705 25.5892 27.5524 25.6613C27.111 25.8072 26.5375 26.0331 25.9775 26.3545C24.8102 27.0245 24.0385 27.8923 24.0385 29.0573C24.0385 29.547 24.208 29.878 24.585 30.2386C24.9862 30.6224 25.5138 30.9418 26.2396 31.3812C26.339 31.4414 26.4422 31.5038 26.5492 31.569C27.3563 32.0603 28.3583 32.6961 29.1382 33.6229C29.9639 34.6043 30.5 35.8568 30.5 37.4861C30.5 39.1384 29.9114 40.435 28.9687 41.3808C28.0648 42.2878 26.9212 42.789 25.9057 43.0743C24.8804 43.3624 23.8802 43.4598 23.1539 43.489C22.7863 43.5037 22.4781 43.5014 22.2578 43.4951C22.1474 43.4919 22.0585 43.4877 21.9945 43.4841C21.9624 43.4823 21.9366 43.4807 21.9174 43.4794L21.8936 43.4777L21.8855 43.477L21.8811 43.4767C21.8805 43.4767 21.88 43.4766 22 41.9814L21.88 43.4766C21.0542 43.4103 20.4385 42.6872 20.5048 41.8614C20.571 41.0368 21.2923 40.4216 22.1166 40.486L22.1182 40.4861M22.12 40.4862C22.1203 40.4863 22.1197 40.4862 22.12 40.4862L22.1228 40.4864C22.13 40.4869 22.1435 40.4878 22.1628 40.4889C22.2013 40.491 22.2627 40.494 22.3438 40.4963C22.5063 40.501 22.7449 40.503 23.0336 40.4914C23.6198 40.4679 24.3696 40.3897 25.0943 40.1861C25.8288 39.9797 26.4352 39.6732 26.8438 39.2632C27.2136 38.892 27.5 38.3623 27.5 37.4861C27.5 36.5866 27.2284 36.0129 26.8426 35.5544C26.4109 35.0413 25.7975 34.6235 24.9893 34.1315C24.8979 34.0759 24.8023 34.0184 24.7035 33.959C24.0159 33.5457 23.1716 33.0382 22.5112 32.4064C21.6766 31.6081 21.0385 30.5343 21.0385 29.0573C21.0385 26.2888 22.959 24.628 24.4841 23.7527C25.2702 23.3015 26.0429 23.0006 26.6111 22.8128C26.8978 22.7181 27.1392 22.6499 27.313 22.6046C27.4001 22.5818 27.4707 22.5647 27.5221 22.5527C27.5478 22.5467 27.5688 22.542 27.5846 22.5385L27.6046 22.5342L27.6116 22.5327L27.6143 22.5321L27.6155 22.5319C27.6161 22.5317 27.6166 22.5316 27.9231 24L27.6166 22.5316C28.4276 22.3624 29.2222 22.8826 29.3914 23.6935" fill="white"/>
</svg>
