<?xml version="1.0" encoding="utf-8"?>
<!-- Generator: Adobe Illustrator 24.0.0, SVG Export Plug-In . SVG Version: 6.00 Build 0)  -->
<svg version="1.1" id="icons_set" xmlns="http://www.w3.org/2000/svg" xmlns:xlink="http://www.w3.org/1999/xlink" x="0px" y="0px"
	 viewBox="0 0 50 50" style="enable-background:new 0 0 50 50;" xml:space="preserve">
<style type="text/css">
	.st0{fill:#FFFFFF;}
</style>
<title>Merchant vessel</title>
<g id="Merchant_vessel_vessel">
	<path class="st0" d="M25,34.3c-2.5,0-4.5-2-4.5-4.5c0,0,0,0,0,0c0-0.1,0-0.1,0-0.2c0-2.5,2-4.5,4.5-4.5s4.5,2,4.5,4.5l0,0
		c0,0.1,0,0.1,0,0.2C29.5,32.3,27.5,34.3,25,34.3z M48.4,21.5c0.3-1-0.2-2.2-1.3-2.5c-0.3-0.1-0.6-0.1-0.9-0.1L3.2,24
		c-1.1,0.1-1.9,1.1-1.7,2.2c0,0.2,0.1,0.4,0.1,0.5l4.5,10.4c0.6,1.5,2.1,2.4,3.7,2.4h29.9c1.7,0,3.3-1.1,3.8-2.8L48.4,21.5z"/>
	<path class="st0" d="M6.4,14.8v4h6.8v-4H6.4z M22,19.4v1.7l7.1-0.8v-1L22,19.4z M13.9,10.4v3.7h7.5v-3.7L13.9,10.4z M21.3,10.4
		L21.3,10.4h0.2l0,0H21.3z M13.9,19.5V22l7.5-0.8v-1.8L13.9,19.5z M6.4,19.5v3.3l6.8-0.7v-2.7L6.4,19.5z M13.9,14.8v4h7.5v-4H13.9z
		 M13.9,14.8v4h7.5v-4H13.9z M13.9,14.8v4h7.5v-4H13.9z M13.9,14.8v4h7.5v-4H13.9z M13.9,14.8v4h7.5v-4H13.9z"/>
</g>
</svg>
