<?xml version="1.0" encoding="utf-8"?>
<!-- Generator: Adobe Illustrator 24.0.0, SVG Export Plug-In . SVG Version: 6.00 Build 0)  -->
<svg version="1.1" id="icons_set" xmlns="http://www.w3.org/2000/svg" xmlns:xlink="http://www.w3.org/1999/xlink" x="0px" y="0px"
	 viewBox="0 0 50 50" style="enable-background:new 0 0 50 50;" xml:space="preserve">
<style type="text/css">
	.st0{fill:#FFFFFF;}
</style>
<title>Mine</title>
<path id="Mine" class="st0" d="M42,11.7c-1-1.1-2.7-1.2-3.8-0.2l-4.1,4.1c-1.9-1.3-4-2.1-6.3-2.5V7.3c-0.1-1.5-1.5-2.7-3-2.6
	c-1.4,0.1-2.4,1.2-2.6,2.6v5.9c-2.3,0.4-4.4,1.3-6.4,2.6l-4.2-4.2c-1.1-1-2.8-0.9-3.7,0.2c0,0,0,0,0,0c-1.1,1-1.2,2.7-0.2,3.8
	l4.2,4.2C6.7,26.9,8.3,37,15.6,42.2s17.4,3.6,22.6-3.7c4.1-5.7,4.1-13.4,0-19l4.1-4.1C43.2,14.4,43.1,12.7,42,11.7z M25,33.6
	c-2.5,0-4.5-2-4.5-4.5s2-4.5,4.5-4.5s4.5,2,4.5,4.5S27.5,33.6,25,33.6z"/>
</svg>
