<svg width="50" height="50" viewBox="0 0 50 50" fill="none" xmlns="http://www.w3.org/2000/svg">
<path fill-rule="evenodd" clip-rule="evenodd" d="M7.22962 14.2369L23.7296 45.6315C24.4791 47.0575 26.5209 47.0575 27.2704 45.6315L42.4598 16.7305C43.1598 15.3987 42.194 13.8 40.6895 13.8H22.3254V5C22.3254 3.89543 21.43 3 20.3254 3H9C7.89543 3 7 3.89543 7 5V13.3064C7 13.6306 7.0788 13.9499 7.22962 14.2369ZM25.5 30C27.9853 30 30 27.9853 30 25.5C30 23.0147 27.9853 21 25.5 21C23.0147 21 21 23.0147 21 25.5C21 27.9853 23.0147 30 25.5 30Z" fill="white"/>
</svg>
