<?xml version="1.0" encoding="utf-8"?>
<!-- Generator: Adobe Illustrator 24.0.0, SVG Export Plug-In . SVG Version: 6.00 Build 0)  -->
<svg version="1.1" id="icons_set" xmlns="http://www.w3.org/2000/svg" xmlns:xlink="http://www.w3.org/1999/xlink" x="0px" y="0px"
	 viewBox="0 0 50 50" style="enable-background:new 0 0 50 50;" xml:space="preserve">
<style type="text/css">
	.st0{fill:#FFFFFF;}
</style>
<title>Radar</title>
<path class="st0" d="M46,35.7c-1.1-1.5-3.2-1.7-4.7-0.6l-0.4,0.3l0,0c-3.3,2.5-7.4,3.9-11.5,3.9c0,0,0,0,0,0c-3.7,0-7.2-1-10.3-3
	c-3.6-2.3-6.3-5.6-7.7-9.3l9.7-8.9l0.2,3.8c0,0.7,0.3,1.5,0.7,2.1c0.6,0.9,1.6,1.6,2.7,1.8c1.1,0.2,2.2,0,3.2-0.6L43.4,15l0,0
	l0.4-0.3c1.5-1,2-3,1-4.6c-1-1.5-3-2-4.6-1l-0.2,0.1l0,0l-12.4,8l-0.2-4.8c-0.1-2.3-2.1-4.1-4.4-4c-1,0-1.9,0.4-2.6,1.1L10,19.1
	c0.1-3.3,1-6.7,2.9-9.7l0,0L13,9.3c1-1.5,0.6-3.6-1-4.6c0,0,0,0,0,0c-1.5-1-3.6-0.6-4.6,1L7.2,6.1l0,0c-7.5,12.2-3.8,28.2,8.4,35.8
	c4.2,2.6,8.9,4,13.8,4c0,0,0,0,0,0c5.7,0,11.2-1.9,15.7-5.3l0,0l0.2-0.2C46.8,39.2,47.1,37.1,46,35.7z"/>
</svg>
