<?xml version="1.0" encoding="utf-8"?>
<!-- Generator: Adobe Illustrator 24.0.0, SVG Export Plug-In . SVG Version: 6.00 Build 0)  -->
<svg version="1.1" id="icons_set" xmlns="http://www.w3.org/2000/svg" xmlns:xlink="http://www.w3.org/1999/xlink" x="0px" y="0px"
	 viewBox="0 0 50 50" style="enable-background:new 0 0 50 50;" xml:space="preserve">
<style type="text/css">
	.st0{fill:#FFFFFF;}
</style>
<title>Torpedo</title>
<g id="Missile">
	<path class="st0" d="M24.9,3.3L24.9,3.3c1.9,0,3.5,1.6,3.5,3.5v38.9l0,0h-7l0,0V6.8C21.4,4.9,23,3.3,24.9,3.3
		C24.9,3.3,24.9,3.3,24.9,3.3z"/>
	<path class="st0" d="M8,6L8,6c1.4-1.4,3.6-1.4,4.9,0l0,0l15.7,15.7l0,0l-4.9,4.9l0,0L8,10.9C6.6,9.6,6.6,7.3,8,6z"/>
	<path class="st0" d="M41.9,6L41.9,6c1.4,1.4,1.4,3.6,0,4.9L26.2,26.6l0,0l-4.9-4.9l0,0L36.9,6C38.3,4.6,40.5,4.6,41.9,6z"/>
	<path class="st0" d="M7.4,42.5v-0.6c0-1.8,1.4-3.2,3.2-3.2h29.2c1.8,0,3.2,1.4,3.2,3.2v0.6c0,1.8-1.4,3.2-3.2,3.2H10.5
		C8.8,45.6,7.4,44.2,7.4,42.5z"/>
</g>
</svg>
