<?xml version="1.0" encoding="utf-8"?>
<!-- Generator: Adobe Illustrator 24.0.0, SVG Export Plug-In . SVG Version: 6.00 Build 0)  -->
<svg version="1.1" id="Layer_1" xmlns="http://www.w3.org/2000/svg" xmlns:xlink="http://www.w3.org/1999/xlink" x="0px" y="0px"
	 viewBox="0 0 100 100" style="enable-background:new 0 0 100 100;" xml:space="preserve">
<style type="text/css">
	.st0{fill:#FFFFFF;}
</style>
<g>
	<path class="st0" d="M44.6,77.6c-4.2,0-8.3,0.1-12.5-0.1c-1.5-0.1-2.9-1-4.4-1.5c0.6-1.5,0.8-3.2,1.7-4.4
		c12.3-15.7,24.7-31.4,37.1-46.9c1-1.2,2.9-1.7,4.4-2.5c0.4,1.6,1.4,3.3,1.2,4.8c-2.5,14.6-5.2,29.1-7.7,43.7
		c-0.8,4.9-3.2,7.4-8.4,7C52.3,77.4,48.4,77.6,44.6,77.6z M60.6,57.6c-0.3-3.8-2.3-6.1-6-6.2c-3-0.3-5.7,1.9-5.9,4.9
		c0,0.2,0,0.4,0,0.5c-0.2,3.7,1.9,6.1,5.6,6.3C57.9,63.5,60,61.2,60.6,57.6L60.6,57.6z"/>
</g>
</svg>
