<?xml version="1.0" encoding="utf-8"?>
<!-- Generator: Adobe Illustrator 24.0.0, SVG Export Plug-In . SVG Version: 6.00 Build 0)  -->
<svg version="1.1" id="icons_set" xmlns="http://www.w3.org/2000/svg" xmlns:xlink="http://www.w3.org/1999/xlink" x="0px" y="0px"
	 viewBox="0 0 50 50" style="enable-background:new 0 0 50 50;" xml:space="preserve">
<style type="text/css">
	.st0{fill:#FFFFFF;}
</style>
<title>Destroyer</title>
<path class="st0" d="M39.9,16.8c-0.6-0.4-1.3-0.6-2.1-0.6H26.4v-5h10.2c0.7,0,1.3-0.6,1.3-1.3V9.6c0,0,0,0,0,0
	c0-0.7-0.6-1.3-1.3-1.3H26.5V6.1c0-0.8-0.7-1.5-1.5-1.5s-1.5,0.7-1.5,1.5v2.2H13.4c-0.7,0-1.3,0.6-1.2,1.3v0.3
	c0,0.7,0.5,1.3,1.2,1.3h10.1v5H12.2c-2.2,0-4,1.8-4,4c0,0.7,0.2,1.4,0.6,2.1l12.8,21.2c1.1,1.9,3.6,2.5,5.5,1.3
	c0.6-0.3,1-0.8,1.3-1.3l12.8-21.1C42.3,20.4,41.7,18,39.9,16.8z M25,34.1c-2.5,0-4.5-2-4.5-4.5c0-2.5,2-4.5,4.5-4.5s4.5,2,4.5,4.5
	C29.5,32.1,27.5,34.1,25,34.1z"/>
</svg>
