<?xml version="1.0" encoding="utf-8"?>
<!-- Generator: Adobe Illustrator 24.0.0, SVG Export Plug-In . SVG Version: 6.00 Build 0)  -->
<svg version="1.1" id="Layer_1" xmlns="http://www.w3.org/2000/svg" xmlns:xlink="http://www.w3.org/1999/xlink" x="0px" y="0px"
	 viewBox="0 0 100 100" style="enable-background:new 0 0 100 100;" xml:space="preserve">
<style type="text/css">
	.st0{fill:#FFFFFF;}
</style>
<title>Asset 7</title>
<g>
	<path class="st0" d="M24.3,56l0.5-4.6h8.3l2.5,4.3l1-1.1c-0.2,0-0.5,0-0.5,0c-0.2-1-1-2.6-0.6-3c1.4-1.5,8.6,0.1,9.9,1.9
		c1.3-2,7.6-3.2,9.8-2c0.9,0.5,2,1.3,2.9,1.3c6.6-0.6,13.2-1.3,19.8-2c3.4-0.4,4.9,0.9,3.8,4.2c-2,5.8-3.8,11.7-6.5,17.2
		c-0.9,1.9-4.1,3.6-6.2,3.7c-12.8,0.3-25.6,0.4-38.4,0c-2.4-0.1-5-2.5-6.9-4.5c-1.6-1.8-2.3-4.4-3.4-6.6
		C16.8,57.8,16.8,57.6,24.3,56z M57.7,63.1c0.4,3.8,2.4,6,6.1,6c3,0.2,5.6-2.1,5.8-5.1c0-0.2,0-0.3,0-0.5c0.2-3.7-2-6.1-5.7-6.2
		S58.2,59.6,57.7,63.1z"/>
	<path class="st0" d="M63.1,42.1c3.4-3.8,6.7-7.8,10.2-11.5c0.9-0.9,2.7-0.9,4-1.3c-0.3,1.3-0.4,2.8-1.2,3.8
		c-4.7,5.8-9.5,11.5-14.3,17.2c-0.7,0.6-1.6,0.9-2.5,0.8c-0.5,0-1.1-1.2-1.1-1.9c-0.1-7.7-0.1-15.3,0-23c0-0.8,1.2-1.6,1.8-2.5
		c0.6,1,1.8,1.9,1.8,2.9c0.2,4.9,0.1,9.9,0.1,14.8L63.1,42.1z"/>
	<path class="st0" d="M44.6,33.1c0.3,5.5-0.4,5.8-9.5,4.4c-0.1-1.3-0.2-2.7-0.3-4.4H44.6z"/>
	<path class="st0" d="M45.8,45.2h9.4c0.1,1.5,0.3,2.9,0.5,4.7h-9.4C46.1,48.7,46,47.3,45.8,45.2z"/>
	<path class="st0" d="M44.8,45.4V50h-9.7c-0.1-1.3-0.2-2.8-0.3-4.6H44.8z"/>
	<path class="st0" d="M34.5,39.3H45c-0.4,1.6-0.5,4.1-1.1,4.2C41.3,44,38.6,44,36,43.6C35.4,43.4,35.1,41,34.5,39.3z"/>
	<path class="st0" d="M24.8,50v-4.7h8.8V50H24.8z"/>
	<path class="st0" d="M25,39.3h8.4c1.6,4.2-0.7,4.8-3.8,4.7C26.6,44,23.5,44.3,25,39.3z"/>
</g>
</svg>
