<?xml version="1.0" encoding="utf-8"?>
<!-- Generator: Adobe Illustrator 24.0.0, SVG Export Plug-In . SVG Version: 6.00 Build 0)  -->
<svg version="1.1" id="Layer_1" xmlns="http://www.w3.org/2000/svg" xmlns:xlink="http://www.w3.org/1999/xlink" x="0px" y="0px"
	 viewBox="0 0 100 100" style="enable-background:new 0 0 100 100;" xml:space="preserve">
<style type="text/css">
	.st0{fill:#FFFFFF;}
</style>
<g>
	<title>Asset 5</title>
	<path class="st0" d="M77.3,48.9c0,5.1,0.3,10.3-0.1,15.5c-0.1,1.8-1.5,4.6-2.9,5c-2.2,0.5-4.5,0-6.2-1.3c-5.3-4.7-10.2-9.9-15.2-15
		c-2.5-2.5-2.7-5.5-0.3-8c5.1-5.5,10.4-10.8,16-15.8c1.7-1.2,3.8-1.5,5.8-0.9c1.4,0.5,2.8,2.9,2.9,4.6
		C77.5,38.2,77.3,43.5,77.3,48.9z"/>
	<path class="st0" d="M22.7,48.6c0-5-0.3-10,0.1-14.9c0.2-2,1.6-4.8,3.1-5.4s4.7,0.2,6.1,1.5c5.2,4.6,10,9.7,14.9,14.7
		c2.8,2.8,3,5.8,0,8.7c-4.9,4.9-9.7,10-14.9,14.7c-1.5,1.3-4.5,2.2-6.1,1.6S23,66,22.9,64C22.4,58.9,22.7,53.7,22.7,48.6z"/>
</g>
</svg>
