<?xml version="1.0" encoding="utf-8"?>
<!-- Generator: Adobe Illustrator 24.0.0, SVG Export Plug-In . SVG Version: 6.00 Build 0)  -->
<svg version="1.1" id="icons_set" xmlns="http://www.w3.org/2000/svg" xmlns:xlink="http://www.w3.org/1999/xlink" x="0px" y="0px"
	 viewBox="0 0 50 50" style="enable-background:new 0 0 50 50;" xml:space="preserve">
<style type="text/css">
	.st0{fill:#FFFFFF;}
</style>
<title>Fixed wing aircraft</title>
<path class="st0" d="M46.7,21.3h-12c-0.9-3.6-3.8-6.5-7.4-7.4V6.6c0-1.1-0.9-1.9-1.9-1.9h-1c-1.1,0-1.9,0.9-1.9,1.9V14
	c-3.6,0.9-6.4,3.7-7.3,7.4H3.3c-1.2,0-2.2,1-2.2,2.2V24c0,1.2,1,2.1,2.1,2.1h11.9c0.7,2.8,2.6,5.2,5.1,6.5L15,42.5
	c-0.5,0.9-0.1,2.1,0.8,2.6c0.3,0.1,0.6,0.2,0.9,0.2h16.7c1.1,0,1.9-0.8,2-1.9c0-0.3-0.1-0.7-0.3-1l-5.3-9.8c2.4-1.3,4.3-3.7,4.9-6.5
	h12c1.2,0,2.2-1,2.2-2.2v-0.5C48.9,22.3,47.9,21.3,46.7,21.3z M24.9,19.4c2.4,0,4.3,1.9,4.3,4.3c0,2.4-1.9,4.3-4.3,4.3
	s-4.3-1.9-4.3-4.3C20.6,21.4,22.6,19.4,24.9,19.4z"/>
</svg>
