<?xml version="1.0" encoding="utf-8"?>
<!-- Generator: Adobe Illustrator 24.0.0, SVG Export Plug-In . SVG Version: 6.00 Build 0)  -->
<svg version="1.1" id="icons_set" xmlns="http://www.w3.org/2000/svg" xmlns:xlink="http://www.w3.org/1999/xlink" x="0px" y="0px"
	 viewBox="0 0 50 50" style="enable-background:new 0 0 50 50;" xml:space="preserve">
<style type="text/css">
	.st0{fill:#FFFFFF;}
</style>
<title>MCMV</title>
<path id="MCMV" class="st0" d="M25,35.6c-2.5,0-4.5-2-4.5-4.5s2-4.5,4.5-4.5s4.5,2,4.5,4.5C29.5,33.6,27.5,35.6,25,35.6
	C25,35.6,25,35.6,25,35.6z M13.9,43.8h22.2c2.2,0,4-1.8,4-4V8.2c0-1.1-0.9-2-2-2c-0.6,0-1.2,0.3-1.6,0.7L25.8,20.3
	c-0.3,0.4-1,0.5-1.4,0.2c-0.1,0-0.1-0.1-0.2-0.2L13.5,7c-0.7-0.9-1.9-1-2.8-0.3c-0.5,0.4-0.7,1-0.7,1.6v31.6
	C9.9,42,11.7,43.8,13.9,43.8z"/>
</svg>
