<?xml version="1.0" encoding="utf-8"?>
<!-- Generator: Adobe Illustrator 24.0.0, SVG Export Plug-In . SVG Version: 6.00 Build 0)  -->
<svg version="1.1" id="icons_set" xmlns="http://www.w3.org/2000/svg" xmlns:xlink="http://www.w3.org/1999/xlink" x="0px" y="0px"
	 viewBox="0 0 50 50" style="enable-background:new 0 0 50 50;" xml:space="preserve">
<style type="text/css">
	.st0{fill:#FFFFFF;}
</style>
<title>Missile</title>
<path class="st0" d="M42,20.2C42,20.2,42,20.2,42,20.2l0-0.3h0c0-0.2,0-0.5,0-0.7c0-0.2,0-0.4,0-0.5l0-0.3
	c-0.7-7.9-6-14.4-13.2-16.2c-0.2-0.1-0.6-0.2-1.1-0.2c-0.9-0.2-1.8-0.2-2.7-0.2c-8.7,0-16,7.1-16.9,16.5C8,18.9,8,19.5,8,20.1v0.4h0
	v24.9c0.2,1.8,1.7,3.1,3.5,2.9c1.8,0.1,3.3-1.2,3.5-2.9V19.3h0c0-0.1,0-0.2,0-0.3l0-0.2c0.4-4.3,2.8-7.8,6.2-9.4v35.9
	c0,0.8,0.4,1.6,1,2.1c0.7,0.6,1.6,0.9,2.5,0.9c1.8,0.1,3.4-1.2,3.5-3V9.2c3.7,1.4,6.3,5.1,6.8,9.6c0,0.3,0,0.6,0,0.9
	c0,0.2,0,0.4,0,0.5v25.3c0,1.6,1.6,2.9,3.5,2.9S42,47,42,45.4V20.6h0V20.2z"/>
</svg>
