<?xml version="1.0" encoding="utf-8"?>
<!-- Generator: Adobe Illustrator 24.0.0, SVG Export Plug-In . SVG Version: 6.00 Build 0)  -->
<svg version="1.1" id="Layer_1" xmlns="http://www.w3.org/2000/svg" xmlns:xlink="http://www.w3.org/1999/xlink" x="0px" y="0px"
	 viewBox="0 0 100 100" style="enable-background:new 0 0 100 100;" xml:space="preserve">
<style type="text/css">
	.st0{fill:#FFFFFF;}
</style>
<g>
	<title>Asset 6</title>
	<path class="st0" d="M52.2,39.4c4.7,0,9.2-0.1,13.7,0c5.7,0.2,8,3.7,5.2,8.6c-5.3,9.1-10.7,18.1-16.3,27c-2.6,4.2-7,4.2-9.6-0.1
		C39.6,66,34.2,57,29,47.9c-2.7-4.6-0.5-8.2,4.8-8.4c4.5-0.2,9,0,12.8,0c2.7-1.7-0.5-7,5.1-5.7C51.8,35.3,51.9,37,52.2,39.4z
		 M50.1,63c3.7-0.3,5.9-2.4,5.8-6.1c-0.2-3.4-2.2-5.7-5.7-5.8c-3.7-0.1-6.1,2.2-6.1,5.8C44,60.6,46.2,62.7,50.1,63z"/>
	<path class="st0" d="M50.4,28.5c4.8,0,9.7-0.1,14.5,0.1c1.1,0.1,2.1,1.3,3.2,2c-1.1,0.6-2.1,1.6-3.2,1.6c-10,0.1-20,0.1-30,0
		c-1,0-2-1.1-3-1.7c1-0.6,2-1.8,3-1.8C40.1,28.4,45.2,28.5,50.4,28.5z"/>
	<path class="st0" d="M47.7,23.9l2.8-3.9c0.7,1.3,1.8,2.6,1.8,3.8s-1.3,2.4-2,3.6L47.7,23.9z"/>
</g>
</svg>
