<?xml version="1.0" encoding="utf-8"?>
<!-- Generator: Adobe Illustrator 24.0.0, SVG Export Plug-In . SVG Version: 6.00 Build 0)  -->
<svg version="1.1" id="icons_set" xmlns="http://www.w3.org/2000/svg" xmlns:xlink="http://www.w3.org/1999/xlink" x="0px" y="0px"
	 viewBox="0 0 50 50" style="enable-background:new 0 0 50 50;" xml:space="preserve">
<style type="text/css">
	.st0{fill:#FFFFFF;}
</style>
<title>Frigate</title>
<g>
	<path class="st0" d="M10.9,15.5c0-1.8,0.6-3.6,1.7-5.4s2.8-3.3,5-4.5s4.8-1.8,7.7-1.8c2.7,0,5.1,0.5,7.2,1.5s3.7,2.4,4.8,4.1
		c1.1,1.7,1.7,3.6,1.7,5.6c0,1.6-0.3,3-1,4.2c-0.6,1.2-1.4,2.2-2.3,3.1c-0.9,0.9-2.5,2.3-4.8,4.4c-0.6,0.6-1.1,1.1-1.5,1.5
		c-0.4,0.4-0.7,0.8-0.9,1.2s-0.3,0.7-0.4,1.1c-0.1,0.4-0.3,1-0.5,1.9c-0.4,2-1.5,2.9-3.3,2.9c-1,0-1.8-0.3-2.5-1
		c-0.7-0.6-1-1.6-1-2.8c0-1.6,0.2-2.9,0.7-4.1c0.5-1.2,1.1-2.2,1.9-3c0.8-0.9,1.9-1.9,3.3-3.1c1.2-1.1,2.1-1.8,2.6-2.4
		c0.5-0.5,1-1.1,1.4-1.8c0.4-0.7,0.5-1.4,0.5-2.1c0-1.5-0.6-2.8-1.7-3.8c-1.1-1-2.6-1.5-4.3-1.5c-2.1,0-3.6,0.5-4.6,1.6
		c-1,1-1.8,2.6-2.5,4.6c-0.6,2.1-1.8,3.2-3.6,3.2c-1.1,0-1.9-0.4-2.7-1.1C11.3,17.1,10.9,16.3,10.9,15.5z M24.7,46.3
		c-1.1,0-2.1-0.4-3-1.1s-1.3-1.8-1.3-3.1c0-1.2,0.4-2.2,1.2-3c0.8-0.8,1.8-1.2,3-1.2c1.2,0,2.2,0.4,3,1.2c0.8,0.8,1.2,1.8,1.2,3
		c0,1.3-0.4,2.3-1.3,3.1C26.7,45.9,25.8,46.3,24.7,46.3z"/>
</g>
</svg>
