<?xml version="1.0" encoding="utf-8"?>
<!-- Generator: Adobe Illustrator 24.0.0, SVG Export Plug-In . SVG Version: 6.00 Build 0)  -->
<svg version="1.1" id="icons_set" xmlns="http://www.w3.org/2000/svg" xmlns:xlink="http://www.w3.org/1999/xlink" x="0px" y="0px"
	 viewBox="0 0 50 50" style="enable-background:new 0 0 50 50;" xml:space="preserve">
<style type="text/css">
	.st0{fill:#FFFFFF;}
</style>
<title>Fishing vessel</title>
<g id="Fishing_vessel">
	<path class="st0" d="M25,36.9c-2.5,0-4.5-2-4.5-4.5c0,0,0,0,0,0c0-0.1,0-0.1,0-0.2c0-2.5,2-4.5,4.5-4.5s4.5,2,4.5,4.5l0,0
		c0,0.1,0,0.1,0,0.2C29.5,34.9,27.5,36.9,25,36.9z M48.4,24.1c0.3-1.1-0.2-2.2-1.3-2.5c-0.3-0.1-0.6-0.1-0.9-0.1L3.2,26.7
		c-1.1,0.1-1.9,1.1-1.8,2.2c0,0.2,0.1,0.4,0.2,0.6l4.5,10.4c0.6,1.5,2.1,2.4,3.7,2.4h29.9c1.7,0,3.3-1.1,3.8-2.8L48.4,24.1z"/>
	<path class="st0" d="M6.4,17.4v4h6.8v-4H6.4z M22,22.1v1.7l7.1-0.8v-1L22,22.1z M13.9,13.1v3.7h7.5v-3.7L13.9,13.1z M21.3,13.1
		L21.3,13.1h0.2l0,0H21.3z M13.9,22.1v2.6l7.5-0.8v-1.8L13.9,22.1z M6.4,22.1v3.4l6.8-0.7v-2.7L6.4,22.1z M13.9,17.5v4h7.5v-4H13.9z
		 M13.9,17.5v4h7.5v-4H13.9z M13.9,17.5v4h7.5v-4H13.9z M13.9,17.5v4h7.5v-4H13.9z M13.9,17.5v4h7.5v-4H13.9z"/>
	<path class="st0" d="M44.1,8.6c-0.6-0.6-1.5-0.6-2.1,0l-8.1,8.1V9.3c0-0.8-0.7-1.5-1.5-1.5s-1.5,0.7-1.5,1.5v13.4l3-0.3V21
		l10.3-10.3C44.7,10.2,44.7,9.2,44.1,8.6z"/>
</g>
</svg>
