<svg width="50" height="50" xmlns="http://www.w3.org/2000/svg">

 <title>Fixed wing aircraft</title>
 <g>
  <title>background</title>
  <rect fill="none" id="canvas_background" height="402" width="582" y="-1" x="-1"/>
 </g>
 <g>
  <title>Layer 1</title>
  <path fill="#ffffff" id="svg_1" d="m46.7,21.3l-12,0c-0.9,-3.6 -3.8,-6.5 -7.4,-7.4l0,-7.3c0,-1.1 -0.9,-1.9 -1.9,-1.9l-1,0c-1.1,0 -1.9,0.9 -1.9,1.9l0,7.4c-3.6,0.9 -6.4,3.7 -7.3,7.4l-11.9,0c-1.2,0 -2.2,1 -2.2,2.2l0,0.4c0,1.2 1,2.1 2.1,2.1l11.9,0c0.7,2.8 2.6,5.2 5.1,6.5c10.70838,1.85729 13.9,-3.7 14.5,-6.5l12,0c1.2,0 2.2,-1 2.2,-2.2l0,-0.5c0,-1.1 -1,-2.1 -2.2,-2.1zm-21.8,-1.9c2.4,0 4.3,1.9 4.3,4.3c0,2.4 -1.9,4.3 -4.3,4.3s-4.3,-1.9 -4.3,-4.3c0,-2.3 2,-4.3 4.3,-4.3z" class="st0"/>
 </g>
</svg>