<?xml version="1.0" encoding="utf-8"?>
<!-- Generator: Adobe Illustrator 24.0.0, SVG Export Plug-In . SVG Version: 6.00 Build 0)  -->
<svg version="1.1" id="icons_set" xmlns="http://www.w3.org/2000/svg" xmlns:xlink="http://www.w3.org/1999/xlink" x="0px" y="0px"
	 viewBox="0 0 50 50" style="enable-background:new 0 0 50 50;" xml:space="preserve">
<style type="text/css">
	.st0{fill:#FFFFFF;}
</style>
<title>Periscope</title>
<g>
<path class="st0" d="M40.0559 44.5366C40.4881 45.0348 41.0197 45.5881 41.6166 46.081C42.298 46.6436 43.1608 47.2085 44.1361 47.4523C44.9398 47.6533 45.7542 47.1646 45.9552 46.3609C46.1561 45.5573 45.6674 44.7428 44.8638 44.5419C44.5065 44.4526 44.0483 44.1983 43.5268 43.7677C43.0211 43.3501 42.5446 42.841 42.1495 42.3679C41.0348 41.0331 38.9186 41.1269 37.8838 42.4498C37.4769 42.97 36.9758 43.5129 36.4321 43.9144C35.8807 44.3216 35.3999 44.5 34.9999 44.5C34.614 44.5 34.1405 44.3347 33.5899 43.9544C33.0474 43.5797 32.5349 43.0679 32.1034 42.5596C31.4824 41.8281 30.5866 41.5689 29.8211 41.6058C29.0563 41.6426 28.201 41.9844 27.6487 42.7458C27.297 43.2307 26.8841 43.6956 26.4414 44.0278C26.0005 44.3586 25.6135 44.4975 25.2731 44.4971C24.6133 44.4964 23.8356 43.9557 23.0769 42.9862C22.4465 42.1807 21.4869 41.899 20.7038 41.9069C19.9205 41.9148 18.9738 42.2151 18.3573 43.0175C17.6397 43.9516 16.8683 44.4979 16.1373 44.4971C15.3088 44.4963 14.6366 45.1672 14.6357 45.9956C14.6349 46.824 15.3058 47.4963 16.1342 47.4971C18.2894 47.4993 19.8223 46.0152 20.6851 44.9113C20.6994 44.9087 20.7161 44.9069 20.7341 44.9067C20.7481 44.9066 20.7612 44.9074 20.7726 44.9088C21.6334 45.9895 23.1705 47.4949 25.2699 47.4971C26.4644 47.4984 27.4716 47.0055 28.242 46.4274C28.9456 45.8994 29.5208 45.2502 29.9593 44.6668C30.4682 45.2477 31.1218 45.8957 31.8849 46.4228C32.7133 46.995 33.7805 47.5 34.9999 47.5C36.2802 47.5 37.3793 46.9442 38.2142 46.3277C38.9541 45.7814 39.5775 45.1209 40.0559 44.5366ZM15.7032 6.5H29C33.4183 6.5 37 10.0817 37 14.5V39C37 39.2761 36.7772 39.5621 36.5989 39.7729C36.5336 39.85 36.4664 39.9387 36.3955 40.0323C36.0685 40.4635 35.6618 41 35 41C34.6517 41 34.3641 40.6967 33.9892 40.3014C33.2879 39.5617 32.2812 38.5 30 38.5C28.0981 38.5 26.799 39.7058 25.8481 40.5885C25.6749 40.7492 25.5133 40.8992 25.3616 41.0293C24.9425 41.3889 24.5 41.0523 24.5 40.5V25.5C24.5 24.9477 24.0523 24.5 23.5 24.5H15.7032C13 24.5 10 20.5 10 15.5C9.99999 10.5 13 6.5 15.7032 6.5ZM16.5 22.5C18.9853 22.5 21 19.366 21 15.5C21 11.634 18.9853 8.5 16.5 8.5C14.0147 8.5 12 11.634 12 15.5C12 19.366 14.0147 22.5 16.5 22.5Z" fill="white"/>
</g>
</svg>
