<?xml version="1.0" encoding="utf-8"?>
<!-- Generator: Adobe Illustrator 24.0.0, SVG Export Plug-In . SVG Version: 6.00 Build 0)  -->
<svg version="1.1" id="icons_set" xmlns="http://www.w3.org/2000/svg" xmlns:xlink="http://www.w3.org/1999/xlink" x="0px" y="0px"
	 viewBox="0 0 50 50" style="enable-background:new 0 0 50 50;" xml:space="preserve">
<style type="text/css">
	.st0{fill:#FFFFFF;}
</style>
<title>Flash</title>
<g>
<path class="st0" fill-rule="evenodd" clip-rule="evenodd" d="M16.517 8.18352C16.3848 7.62004 17.1005 7.26077 17.4734 7.70338L25.0484 16.6943C25.2666 16.9533 25.6648 16.9555 25.8859 16.699L36.1332 4.81026C36.5288 4.3513 37.2674 4.77543 37.0703 5.34842L31.7527 20.8103C31.6513 21.1052 31.815 21.4254 32.1134 21.5158L45.5631 25.5931C46.1248 25.7634 46.0652 26.5772 45.4847 26.6638L32.2981 28.6314C31.9407 28.6848 31.7309 29.0623 31.8743 29.394L37.8915 43.3131C38.1348 43.8758 37.4143 44.3547 36.9896 43.9126L25.8613 32.3267C25.6632 32.1204 25.34 32.1003 25.1179 32.2806L14.059 41.2526C13.6022 41.6232 12.9608 41.115 13.2171 40.5856L19.1248 28.3848C19.273 28.0786 19.1106 27.7126 18.7841 27.617L3.76831 23.2218C3.19147 23.0529 3.26446 22.2136 3.86179 22.1469L18.7688 20.4816C19.0965 20.445 19.3187 20.1302 19.2434 19.8092L16.517 8.18352Z" fill="white"/>
</g>
</svg>
