<?xml version="1.0" encoding="utf-8"?>
<!-- Generator: Adobe Illustrator 24.0.0, SVG Export Plug-In . SVG Version: 6.00 Build 0)  -->
<svg version="1.1" id="icons_set" xmlns="http://www.w3.org/2000/svg" xmlns:xlink="http://www.w3.org/1999/xlink" x="0px" y="0px"
	 viewBox="0 0 50 50" style="enable-background:new 0 0 50 50;" xml:space="preserve">
<style type="text/css">
	.st0{fill:#FFFFFF;}
</style>
<title>Plume</title>
<g>
<path class="st0" fill-rule="evenodd" clip-rule="evenodd" d="M23.5 16.5C23.5 10.6406 24 6.49993 28.6546 4.63486C36.3269 2.0309 40.022 8.17074 36.3269 9.84298C30.5727 12.4471 28.6546 13.5 28.6546 16.5C29.2896 16.972 29.7363 16.6642 30.399 16.2077C31.1403 15.6969 32.152 15 34 15C39 15 40.215 19.2628 37 20C32.6387 21 30 23 29.5 27.5C30.4133 26.5867 30.7402 26.3268 32.8148 25.9538C35.9324 25.3934 38.403 28.2742 35.5 29C33.5 29.5 32.5 30 31.5066 31.2222C31.43 31.3164 31.353 31.4106 31.2757 31.5052C30.3499 32.6375 29.3824 33.8209 28.6546 35.6666C27.851 37.7047 27.8345 40.7927 27.9083 42.5816L33.6748 43.7349C34.4453 43.889 35 44.5656 35 45.3514C35 46.2619 34.2619 47 33.3515 47H16.6485C15.7381 47 15 46.2619 15 45.3514C15 44.5656 15.5547 43.889 16.3252 43.7349L23.075 42.385L21 34.5C20.3607 31.8959 18.4247 28.7551 12 27.5C9 26.9139 10.8599 23.5001 14.5 23.5C17 23.5 20 24.4999 21 26.5C21 24.5469 20 18.5 13 16.5C6.6766 14.6933 12.5631 7.88998 18.4247 11.1451C20.9019 12.5208 21.4413 13.369 22.3372 14.7779C22.6493 15.2686 23.0045 15.8273 23.5 16.5Z" fill="white"/>
</g>
</svg>
