<?xml version="1.0" encoding="utf-8"?>
<!-- Generator: Adobe Illustrator 24.0.0, SVG Export Plug-In . SVG Version: 6.00 Build 0)  -->
<svg version="1.1" id="icons_set" xmlns="http://www.w3.org/2000/svg" xmlns:xlink="http://www.w3.org/1999/xlink" x="0px" y="0px"
	 viewBox="0 0 50 50" style="enable-background:new 0 0 50 50;" xml:space="preserve">
<style type="text/css">
	.st0{fill:#FFFFFF;}
</style>
<title>Wake</title>
<g>
<path class="st0" d="M36.8894 2.5C36.7384 2.5 36.5955 2.56823 36.5006 2.68565C36.0082 3.29476 35.1354 3.79618 34.0095 4.26003C33.2283 4.58188 32.377 4.86648 31.5078 5.15707L31.5078 5.15709C31.1296 5.28353 30.748 5.4111 30.3673 5.54337C29.1384 5.97035 27.9225 6.44559 27.0109 7.07605C26.0891 7.71353 25.4029 8.56539 25.4029 9.74443C25.4029 10.4094 25.7638 10.9883 26.2489 11.4765C26.7379 11.9685 27.4095 12.4264 28.1621 12.856C29.4259 13.5776 31.0056 14.2671 32.515 14.9259C32.8013 15.0509 33.0851 15.1748 33.3637 15.2976C35.1511 16.0852 36.6873 16.8128 37.4919 17.5122C37.8999 17.8668 38.0036 18.1158 38.0004 18.2681C37.9977 18.4016 37.9046 18.6613 37.3508 19.0238C36.8225 19.3697 35.9323 19.6989 34.7203 20.0188C33.5214 20.3352 32.0577 20.6303 30.4171 20.9278C29.3012 21.1301 28.1027 21.3336 26.8552 21.5454L26.8546 21.5455C24.4518 21.9535 21.8674 22.3923 19.3423 22.913C15.5036 23.7045 11.7365 24.697 8.84726 26.0927C5.97953 27.478 3.82496 29.3361 3.50386 31.931C3.25196 33.9667 4.29209 35.8316 5.88102 37.4541C7.47553 39.0822 9.69409 40.5425 11.9865 41.7908C15.6058 43.7615 19.5158 45.2561 21.5866 46.0476C22.1342 46.257 22.5532 46.4171 22.8042 46.5239C22.8661 46.5503 22.9326 46.5638 22.9999 46.5638H46.8485C47.0955 46.5638 47.3055 46.3834 47.3428 46.1392C47.4805 45.2364 47.0853 44.4257 46.4338 43.7243C45.7853 43.0262 44.8351 42.3806 43.719 41.7739C41.484 40.559 38.4393 39.425 35.4132 38.3257C35.1544 38.2317 34.8957 38.138 34.6376 38.0444L34.6362 38.0439C31.8562 37.0362 29.1432 36.0528 27.0638 35.0445C25.9266 34.4931 25.0109 33.949 24.3862 33.4098C23.7515 32.8619 23.4999 32.3919 23.4999 31.9924C23.4999 31.6115 23.7525 31.1674 24.4229 30.6548C25.0812 30.1515 26.0457 29.6581 27.241 29.1656C29.1531 28.3779 31.5603 27.6296 34.0569 26.8536L34.057 26.8536C34.681 26.6596 35.3106 26.4639 35.9394 26.2655C39.0575 25.2813 42.1611 24.2273 44.342 22.9878C45.431 22.3689 46.3381 21.6778 46.8949 20.8852C47.4691 20.068 47.6687 19.1412 47.321 18.1377C47.1295 17.5851 46.7349 17.0877 46.2435 16.6411C45.7487 16.1915 45.1267 15.7672 44.4354 15.3668C43.0536 14.5664 41.3365 13.8281 39.6673 13.1573C39.0677 12.9163 38.4765 12.6849 37.9071 12.462L37.9067 12.4618L37.9066 12.4618C36.8747 12.0578 35.9144 11.6819 35.1061 11.3284C34.4809 11.055 33.9718 10.8055 33.6084 10.5795C33.4268 10.4665 33.2954 10.3679 33.2078 10.2848C33.1302 10.2112 33.1088 10.1705 33.1055 10.1641C33.1052 10.1635 33.1051 10.1633 33.105 10.1633L33.1053 10.1643C33.0112 9.86608 33.0465 9.63104 33.1661 9.4128C33.2968 9.17431 33.545 8.92808 33.9246 8.67338C34.6388 8.19427 35.6556 7.78698 36.7455 7.35035L36.9914 7.25176C38.1307 6.79428 39.343 6.29245 40.1478 5.64084C40.5574 5.30925 40.9031 4.90701 41.0637 4.41023C41.2291 3.89876 41.1772 3.35267 40.91 2.78661C40.8274 2.61163 40.6513 2.5 40.4579 2.5H36.8894Z" fill="white"/>
</g>
</svg>
