<svg width="50" height="50" viewBox="0 0 50 50" fill="none" xmlns="http://www.w3.org/2000/svg">
<path fill-rule="evenodd" clip-rule="evenodd" d="M23 10C23 8.89543 23.8954 8 25 8C26.1046 8 27 8.89543 27 10V14.2C31.2462 15.062 34.5155 18.6145 34.9507 23.0006C34.9608 23.0003 34.971 23.0002 34.9812 23.0001C34.9875 23 34.9937 23 35 23H47C48.1046 23 49 23.8954 49 25C49 26.1045 48.1046 27 47 27H35C34.8479 27 34.6998 26.983 34.5575 26.9509C33.9441 28.9399 32.7269 30.664 31.1199 31.9092L35.8682 38.8734C36.7734 40.201 35.8226 42 34.2157 42H15.6433C14.0652 42 13.1087 40.2577 13.956 38.9263L18.577 31.6648C17.1201 30.4426 16.0167 28.8128 15.4425 26.9509C15.3002 26.983 15.1521 27 15 27H3C1.89543 27 1 26.1045 1 25C1 23.8954 1.89543 23 3 23H15C15.0165 23 15.0329 23.0002 15.0493 23.0006C15.4845 18.6145 18.7538 15.062 23 14.2V10ZM25 28.5C27.4853 28.5 29.5 26.4853 29.5 24C29.5 21.5147 27.4853 19.5 25 19.5C22.5147 19.5 20.5 21.5147 20.5 24C20.5 26.4853 22.5147 28.5 25 28.5Z" fill="white"/>
</svg>
