<svg width="50" height="50" viewBox="0 0 50 50" fill="none" xmlns="http://www.w3.org/2000/svg">
<path d="M2 1.5C2 1.22386 2.22386 1 2.5 1H47.5C47.7761 1 48 1.22386 48 1.5V30.5408C48 30.817 47.7761 31.0408 47.5 31.0408H2.5C2.22386 31.0408 2 30.817 2 30.5408V1.5Z" fill="#7DE1FF"/>
<path fill-rule="evenodd" clip-rule="evenodd" d="M4 3V29.0408H46V3H4ZM2.5 1C2.22386 1 2 1.22386 2 1.5V30.5408C2 30.817 2.22386 31.0408 2.5 31.0408H47.5C47.7761 31.0408 48 30.817 48 30.5408V1.5C48 1.22386 47.7761 1 47.5 1H2.5Z" fill="black"/>
<path fill-rule="evenodd" clip-rule="evenodd" d="M3 29.7632C3.55228 29.7632 4 30.2109 4 30.7632L4 48.8573C4 49.4096 3.55229 49.8573 3 49.8573C2.44772 49.8573 2 49.4096 2 48.8573L2 30.7632C2 30.2109 2.44772 29.7632 3 29.7632Z" fill="black"/>
</svg>
