<svg width="50" height="50" viewBox="0 0 50 50" fill="none" xmlns="http://www.w3.org/2000/svg">
<g clip-path="url(#clip0_616_2318)">
<path d="M50 25C50 38.8071 38.8071 50 25 50C11.1929 50 0 38.8071 0 25C0 11.1929 11.1929 0 25 0C38.8071 0 50 11.1929 50 25Z" fill="#7DE1FF"/>
<path fill-rule="evenodd" clip-rule="evenodd" d="M25 48C37.7025 48 48 37.7025 48 25C48 12.2975 37.7025 2 25 2C12.2975 2 2 12.2975 2 25C2 37.7025 12.2975 48 25 48ZM25 50C38.8071 50 50 38.8071 50 25C50 11.1929 38.8071 0 25 0C11.1929 0 0 11.1929 0 25C0 38.8071 11.1929 50 25 50Z" fill="black"/>
<path d="M15 26.5667V15.5C15 15.2239 15.2239 15 15.5 15H26C26.2761 15 26.5 15.2239 26.5 15.5V25.0784C26.5 25.3545 26.7239 25.5784 27 25.5784H35.8022C36.2463 25.5784 36.47 26.1142 36.1577 26.43L26.0482 36.6507C25.8564 36.8446 25.5446 36.8491 25.3474 36.6607L15.1547 26.9284C15.0559 26.834 15 26.7034 15 26.5667Z" fill="black"/>
</g>
<defs>
<clipPath id="clip0_616_2318">
<rect width="50" height="50" fill="white"/>
</clipPath>
</defs>
</svg>
