<svg width="50" height="50" viewBox="0 0 50 50" fill="none" xmlns="http://www.w3.org/2000/svg">
<path d="M0.5 8.5C0.5 8.22386 0.723858 8 1 8H49C49.2761 8 49.5 8.22386 49.5 8.5V41.5C49.5 41.7761 49.2761 42 49 42H1C0.723857 42 0.5 41.7761 0.5 41.5V8.5Z" fill="#7DE1FF"/>
<path fill-rule="evenodd" clip-rule="evenodd" d="M2.5 10V40H47.5V10H2.5ZM1 8C0.723858 8 0.5 8.22386 0.5 8.5V41.5C0.5 41.7761 0.723857 42 1 42H49C49.2761 42 49.5 41.7761 49.5 41.5V8.5C49.5 8.22386 49.2761 8 49 8H1Z" fill="black"/>
<path fill-rule="evenodd" clip-rule="evenodd" d="M20.5 20.5202L20.5006 20.4984C20.5015 20.4758 20.5034 20.4373 20.5075 20.3853C20.5159 20.281 20.5332 20.1246 20.5689 19.9338C20.641 19.548 20.7836 19.0459 21.0597 18.5537C21.3324 18.0674 21.7327 17.5944 22.3312 17.2387C22.9286 16.8836 23.7781 16.6129 25 16.6129C26.2219 16.6129 27.0714 16.8836 27.6688 17.2387C28.2672 17.5944 28.6675 18.0674 28.9403 18.5537C29.4868 19.5281 29.4997 20.5187 29.5 20.5187C29.5 20.5187 29.5 20.5185 29.5 20.518V33.3871C29.5 33.9394 29.9477 34.3871 30.5 34.3871C31.0523 34.3871 31.5 33.9394 31.5 33.3871V20.5161C31.5 20.4554 31.4972 19.024 30.6847 17.5753C30.2699 16.8359 29.639 16.0831 28.6906 15.5194C27.7411 14.9551 26.5281 14.6129 25 14.6129C23.4719 14.6129 22.2589 14.9551 21.3094 15.5194C20.361 16.0831 19.73 16.8359 19.3153 17.5754C18.9039 18.3089 18.7027 19.0326 18.603 19.5662C18.5527 19.8351 18.5271 20.0617 18.5139 20.2256C18.5074 20.3077 18.5039 20.3746 18.502 20.4237C18.5011 20.4483 18.5006 20.4685 18.5003 20.484L18.5001 20.5037L18.5 20.5108L18.5 20.5137L18.5 20.515C18.5 20.5156 18.5 20.5161 19.5 20.5161H18.5V33.3871C18.5 33.9394 18.9477 34.3871 19.5 34.3871C20.0523 34.3871 20.5 33.9394 20.5 33.3871V20.5204C20.5 20.5203 20.5 20.5202 20.5 20.5202Z" fill="black"/>
<path fill-rule="evenodd" clip-rule="evenodd" d="M25 14C25.5523 14 26 14.4477 26 15V34C26 34.5523 25.5523 35 25 35C24.4477 35 24 34.5523 24 34V15C24 14.4477 24.4477 14 25 14Z" fill="black"/>
</svg>
