<svg width="50" height="50" viewBox="0 0 50 50" fill="none" xmlns="http://www.w3.org/2000/svg">
<path d="M25.8781 1.43125L44.655 17.7073C44.8741 17.8973 45 18.173 45 18.463V46.9999C45 47.5522 44.5523 47.9999 44 47.9999L25.2306 48H6C5.44772 48 5 47.5523 5 47V18.4699C5 18.1759 5.12935 17.8968 5.35366 17.7068L24.5768 1.42384C24.9531 1.10511 25.5055 1.10826 25.8781 1.43125Z" fill="#FF7F7F"/>
<path fill-rule="evenodd" clip-rule="evenodd" d="M5 47.8983C5.55228 47.8983 6 47.4506 6 46.8983V18.4706L25 2.41184L44 18.4706V46.8983C44 47.4506 44.4477 47.8983 45 47.8983C45.5523 47.8983 46 47.4506 46 46.8983V18.4706C46 17.8819 45.7406 17.3231 45.291 16.9431L26.291 0.884346C25.5456 0.254337 24.4544 0.254337 23.709 0.884346L4.70897 16.9431C4.25936 17.3231 4 17.8819 4 18.4706V46.8983C4 47.4506 4.44772 47.8983 5 47.8983Z" fill="black"/>
<path d="M25 35.27C24.148 35.27 23.416 35.15 22.804 34.91C22.192 34.658 21.682 34.31 21.274 33.866C20.878 33.422 20.584 32.9 20.392 32.3C20.2 31.7 20.104 31.04 20.104 30.32V22.526H22.39V30.104C22.39 30.668 22.45 31.154 22.57 31.562C22.702 31.958 22.882 32.282 23.11 32.534C23.35 32.786 23.626 32.972 23.938 33.092C24.262 33.212 24.622 33.272 25.018 33.272C25.414 33.272 25.774 33.212 26.098 33.092C26.422 32.972 26.698 32.786 26.926 32.534C27.166 32.282 27.346 31.958 27.466 31.562C27.598 31.154 27.664 30.668 27.664 30.104V22.526H29.95V30.32C29.95 31.04 29.848 31.7 29.644 32.3C29.452 32.9 29.152 33.422 28.744 33.866C28.348 34.31 27.838 34.658 27.214 34.91C26.59 35.15 25.852 35.27 25 35.27Z" fill="black"/>
</svg>
