<svg width="50" height="50" viewBox="0 0 50 50" fill="none" xmlns="http://www.w3.org/2000/svg">
<mask id="path-1-inside-1_620_91" fill="white">
<path fill-rule="evenodd" clip-rule="evenodd" d="M5.5 1C5.22386 1 5 1.22386 5 1.5V47H2C1.44772 47 1 47.4477 1 48C1 48.5523 1.44772 49 2 49H5.5H42.5H48C48.5523 49 49 48.5523 49 48C49 47.4477 48.5523 47 48 47H43V22.5C43 22.2239 42.7761 22 42.5 22H26C25.7239 22 25.5 21.7761 25.5 21.5V1.5C25.5 1.22386 25.2761 1 25 1H5.5ZM18.4 29H12.4V32.5H18.4V29ZM12.4 18.5H18.4V22H12.4V18.5ZM18.4 8H12.4V11.5H18.4V8ZM12.4 39.5H18.4V43H12.4V39.5ZM35 29H29V32.5H35V29ZM29 39.5H35V43H29V39.5Z"/>
</mask>
<path fill-rule="evenodd" clip-rule="evenodd" d="M5.5 1C5.22386 1 5 1.22386 5 1.5V47H2C1.44772 47 1 47.4477 1 48C1 48.5523 1.44772 49 2 49H5.5H42.5H48C48.5523 49 49 48.5523 49 48C49 47.4477 48.5523 47 48 47H43V22.5C43 22.2239 42.7761 22 42.5 22H26C25.7239 22 25.5 21.7761 25.5 21.5V1.5C25.5 1.22386 25.2761 1 25 1H5.5ZM18.4 29H12.4V32.5H18.4V29ZM12.4 18.5H18.4V22H12.4V18.5ZM18.4 8H12.4V11.5H18.4V8ZM12.4 39.5H18.4V43H12.4V39.5ZM35 29H29V32.5H35V29ZM29 39.5H35V43H29V39.5Z" fill="#FF7F7F"/>
<path d="M5 47V49H7V47H5ZM43 47H41V49H43V47ZM12.4 29V27H10.4V29H12.4ZM18.4 29H20.4V27H18.4V29ZM12.4 32.5H10.4V34.5H12.4V32.5ZM18.4 32.5V34.5H20.4V32.5H18.4ZM18.4 18.5H20.4V16.5H18.4V18.5ZM12.4 18.5V16.5H10.4V18.5H12.4ZM18.4 22V24H20.4V22H18.4ZM12.4 22H10.4V24H12.4V22ZM12.4 8V6H10.4V8H12.4ZM18.4 8H20.4V6H18.4V8ZM12.4 11.5H10.4V13.5H12.4V11.5ZM18.4 11.5V13.5H20.4V11.5H18.4ZM18.4 39.5H20.4V37.5H18.4V39.5ZM12.4 39.5V37.5H10.4V39.5H12.4ZM18.4 43V45H20.4V43H18.4ZM12.4 43H10.4V45H12.4V43ZM29 29V27H27V29H29ZM35 29H37V27H35V29ZM29 32.5H27V34.5H29V32.5ZM35 32.5V34.5H37V32.5H35ZM35 39.5H37V37.5H35V39.5ZM29 39.5V37.5H27V39.5H29ZM35 43V45H37V43H35ZM29 43H27V45H29V43ZM7 1.5C7 2.32842 6.32843 3 5.5 3V-1C4.11928 -1 3 0.119295 3 1.5H7ZM7 47V1.5H3V47H7ZM5 45H2V49H5V45ZM2 45C0.343146 45 -1 46.3431 -1 48H3C3 48.5523 2.55229 49 2 49V45ZM-1 48C-1 49.6569 0.343146 51 2 51V47C2.55229 47 3 47.4477 3 48H-1ZM2 51H5.5V47H2V51ZM5.5 51H42.5V47H5.5V51ZM42.5 51H48V47H42.5V51ZM48 51C49.6569 51 51 49.6569 51 48H47C47 47.4477 47.4477 47 48 47V51ZM51 48C51 46.3431 49.6569 45 48 45V49C47.4477 49 47 48.5523 47 48H51ZM48 45H43V49H48V45ZM41 22.5V47H45V22.5H41ZM42.5 24C41.6716 24 41 23.3284 41 22.5H45C45 21.1193 43.8807 20 42.5 20V24ZM26 24H42.5V20H26V24ZM23.5 21.5C23.5 22.8807 24.6193 24 26 24V20C26.8284 20 27.5 20.6716 27.5 21.5H23.5ZM23.5 1.5V21.5H27.5V1.5H23.5ZM25 3C24.1716 3 23.5 2.32843 23.5 1.5H27.5C27.5 0.119288 26.3807 -1 25 -1V3ZM5.5 3H25V-1H5.5V3ZM12.4 31H18.4V27H12.4V31ZM14.4 32.5V29H10.4V32.5H14.4ZM18.4 30.5H12.4V34.5H18.4V30.5ZM16.4 29V32.5H20.4V29H16.4ZM18.4 16.5H12.4V20.5H18.4V16.5ZM20.4 22V18.5H16.4V22H20.4ZM12.4 24H18.4V20H12.4V24ZM10.4 18.5V22H14.4V18.5H10.4ZM12.4 10H18.4V6H12.4V10ZM14.4 11.5V8H10.4V11.5H14.4ZM18.4 9.5H12.4V13.5H18.4V9.5ZM16.4 8V11.5H20.4V8H16.4ZM18.4 37.5H12.4V41.5H18.4V37.5ZM20.4 43V39.5H16.4V43H20.4ZM12.4 45H18.4V41H12.4V45ZM10.4 39.5V43H14.4V39.5H10.4ZM29 31H35V27H29V31ZM31 32.5V29H27V32.5H31ZM35 30.5H29V34.5H35V30.5ZM33 29V32.5H37V29H33ZM35 37.5H29V41.5H35V37.5ZM37 43V39.5H33V43H37ZM29 45H35V41H29V45ZM27 39.5V43H31V39.5H27Z" fill="black" mask="url(#path-1-inside-1_620_91)"/>
</svg>
