<svg width="50" height="50" viewBox="0 0 50 50" fill="none" xmlns="http://www.w3.org/2000/svg">
<g clip-path="url(#clip0_616_2321)">
<path d="M48.302 24.2959L25.9092 1.71012C25.5204 1.31791 24.8872 1.31521 24.495 1.70408L1.7162 24.2898C1.32165 24.681 1.32165 25.3189 1.7162 25.7101L24.495 48.2958C24.8872 48.6847 25.5204 48.682 25.9092 48.2898L48.302 25.704C48.6885 25.3142 48.6885 24.6857 48.302 24.2959Z" fill="#FF7F7F"/>
<path fill-rule="evenodd" clip-rule="evenodd" d="M23.7909 0.993967C24.5753 0.21623 25.8417 0.221638 26.6194 1.00605L49.0121 23.5918C49.7851 24.3715 49.7851 25.6285 49.0121 26.4081L26.6194 48.9939C25.8417 49.7783 24.5753 49.7837 23.7909 49.006L1.01211 26.4202C0.22302 25.6378 0.223011 24.3621 1.0121 23.5797L23.7909 0.993969L23.7909 0.993967ZM25.1991 2.41418L2.42029 25L25.1991 47.5857L47.5918 25L25.1991 2.41418Z" fill="black"/>
<path fill-rule="evenodd" clip-rule="evenodd" d="M20.7505 20.5078L20.75 20.5235V33.3871C20.75 34.0775 20.1904 34.6371 19.5 34.6371C18.8096 34.6371 18.25 34.0775 18.25 33.3871V20.5161H19.5C18.25 20.5161 18.25 20.5154 18.25 20.5147L18.25 20.5132L18.25 20.5097L18.2501 20.5015L18.2504 20.4795C18.2507 20.4624 18.2512 20.4406 18.2522 20.4144C18.2542 20.3619 18.2579 20.2915 18.2647 20.2056C18.2785 20.0343 18.3051 19.7989 18.3572 19.5203C18.4604 18.9682 18.6689 18.2168 19.0973 17.4531C19.5297 16.6819 20.1895 15.8942 21.1817 15.3045C22.1752 14.714 23.4337 14.3629 25 14.3629C26.5663 14.3629 27.8248 14.714 28.8183 15.3045C29.8104 15.8941 30.4702 16.6819 30.9027 17.453C31.7465 18.9574 31.75 20.4402 31.75 20.5161V33.3871C31.75 34.0775 31.1904 34.6371 30.5 34.6371C29.8096 34.6371 29.25 34.0775 29.25 33.3871V20.5194C29.25 20.52 29.25 20.5203 29.25 20.5203C29.2495 20.5203 29.2338 19.5881 28.7223 18.676C28.4672 18.2213 28.0958 17.7833 27.541 17.4536C26.9877 17.1247 26.1836 16.8629 25 16.8629C23.8163 16.8629 23.0123 17.1247 22.4589 17.4536C21.9042 17.7833 21.5327 18.2213 21.2777 18.676C21.0186 19.1381 20.8833 19.6124 20.8146 19.9797C20.7808 20.1608 20.7645 20.3085 20.7567 20.4053C20.7529 20.4535 20.7512 20.4884 20.7505 20.5078Z" fill="black"/>
<path fill-rule="evenodd" clip-rule="evenodd" d="M25 13.75C25.6904 13.75 26.25 14.3096 26.25 15V34C26.25 34.6904 25.6904 35.25 25 35.25C24.3096 35.25 23.75 34.6904 23.75 34V15C23.75 14.3096 24.3096 13.75 25 13.75Z" fill="black"/>
</g>
<defs>
<clipPath id="clip0_616_2321">
<rect width="50" height="50" fill="white"/>
</clipPath>
</defs>
</svg>
