<svg width="50" height="50" viewBox="0 0 50 50" fill="none" xmlns="http://www.w3.org/2000/svg">
<g clip-path="url(#clip0_616_2326)">
<path d="M48.2929 24.2929L25.7071 1.70708C25.3166 1.31655 24.6834 1.31655 24.2929 1.70708L1.70708 24.2929C1.31655 24.6834 1.31655 25.3166 1.70708 25.7071L24.2929 48.2929C24.6834 48.6834 25.3166 48.6834 25.7071 48.2929L48.2929 25.7071C48.6834 25.3166 48.6834 24.6834 48.2929 24.2929Z" fill="#FF7F7F"/>
<path fill-rule="evenodd" clip-rule="evenodd" d="M23.5858 0.999971C24.3668 0.21892 25.6331 0.218925 26.4142 0.999971L49 23.5858C49.781 24.3668 49.781 25.6331 49 26.4142L26.4142 49C25.6331 49.781 24.3668 49.781 23.5858 49L0.999971 26.4142C0.21892 25.6331 0.218925 24.3668 0.999971 23.5858L23.5858 0.999971ZM25 2.41418L2.41418 25L25 47.5858L47.5858 25L25 2.41418Z" fill="black"/>
<path fill-rule="evenodd" clip-rule="evenodd" d="M12.8939 35.4483C12.8933 35.4494 12.8927 35.4506 12.8921 35.4517C12.8924 35.4511 12.8929 35.4502 12.8936 35.4489L12.8934 35.4493L12.8926 35.4508L12.8919 35.4523C12.8918 35.4524 12.8919 35.4522 12.8921 35.4517C12.6438 35.9424 12.0452 36.1407 11.5528 35.8944C11.0588 35.6474 10.8586 35.0468 11.1055 34.5528L12 35C11.1055 34.5528 11.1059 34.5522 11.1062 34.5516L11.1069 34.5502L11.1085 34.547L11.1125 34.539L11.1242 34.5166C11.1335 34.4989 11.1461 34.4755 11.162 34.447C11.1937 34.3898 11.2387 34.3118 11.2981 34.2158C11.4169 34.024 11.5933 33.7601 11.8356 33.4486C12.3202 32.8255 13.0697 32.0102 14.15 31.2C16.3231 29.5702 19.7836 28 25 28C30.2163 28 33.6769 29.5702 35.85 31.2C36.9302 32.0102 37.6797 32.8255 38.1643 33.4486C38.4066 33.7601 38.583 34.024 38.7018 34.2158C38.7612 34.3118 38.8063 34.3898 38.838 34.447C38.8539 34.4755 38.8664 34.4989 38.8758 34.5166L38.8874 34.539L38.8915 34.547L38.8931 34.5502L38.8938 34.5516C38.8941 34.5522 38.8944 34.5528 38 35L38.8944 34.5528C39.1414 35.0468 38.9412 35.6474 38.4472 35.8944C37.9547 36.1407 37.3563 35.9424 37.1079 35.4518C37.1079 35.452 37.108 35.4521 37.1081 35.4522L37.1074 35.4508M37.1078 35.4518C37.1076 35.4512 37.1071 35.4503 37.1064 35.4489L37.1061 35.4483M12.8936 35.4489C12.8962 35.444 12.9017 35.4336 12.9103 35.4183C12.9274 35.3875 12.9565 35.3366 12.9987 35.2685C13.083 35.1323 13.2191 34.9274 13.4143 34.6764C13.8047 34.1745 14.4302 33.4898 15.35 32.8C17.1769 31.4298 20.2163 30 25 30C29.7836 30 32.8231 31.4298 34.65 32.8C35.5697 33.4898 36.1952 34.1745 36.5856 34.6764C36.7808 34.9274 36.9169 35.1323 37.0013 35.2685C37.0434 35.3366 37.0726 35.3875 37.0897 35.4183C37.0982 35.4336 37.1037 35.444 37.1064 35.4489M12.8939 35.4483L12.8936 35.4489Z" fill="black"/>
</g>
<defs>
<clipPath id="clip0_616_2326">
<rect width="50" height="50" fill="white"/>
</clipPath>
</defs>
</svg>
