<svg width="50" height="50" viewBox="0 0 50 50" fill="none" xmlns="http://www.w3.org/2000/svg">
<path d="M25.8781 1.43125L44.655 17.7073C44.8741 17.8973 45 18.173 45 18.463V46.9999C45 47.5522 44.5523 47.9999 44 47.9999L25.2306 48H6C5.44772 48 5 47.5523 5 47V18.4699C5 18.1759 5.12935 17.8968 5.35366 17.7068L24.5768 1.42384C24.9531 1.10511 25.5055 1.10826 25.8781 1.43125Z" fill="#FF7F7F"/>
<path fill-rule="evenodd" clip-rule="evenodd" d="M5 47.8983C5.55228 47.8983 6 47.4506 6 46.8983V18.4706L25 2.41184L44 18.4706V46.8983C44 47.4506 44.4477 47.8983 45 47.8983C45.5523 47.8983 46 47.4506 46 46.8983V18.4706C46 17.8819 45.7406 17.3231 45.291 16.9431L26.291 0.884346C25.5456 0.254337 24.4544 0.254337 23.709 0.884346L4.70897 16.9431C4.25936 17.3231 4 17.8819 4 18.4706V46.8983C4 47.4506 4.44772 47.8983 5 47.8983Z" fill="black"/>
<path d="M23.932 22.4C25.732 22.4 27.106 22.73 28.054 23.39C29.014 24.05 29.494 25.058 29.494 26.414C29.494 28.106 28.66 29.252 26.992 29.852C27.22 30.128 27.478 30.464 27.766 30.86C28.054 31.256 28.348 31.688 28.648 32.156C28.948 32.612 29.236 33.086 29.512 33.578C29.788 34.058 30.034 34.532 30.25 35H27.712C27.484 34.568 27.238 34.136 26.974 33.704C26.71 33.26 26.44 32.834 26.164 32.426C25.9 32.006 25.636 31.616 25.372 31.256C25.108 30.884 24.862 30.554 24.634 30.266C24.466 30.278 24.322 30.284 24.202 30.284C24.082 30.284 23.968 30.284 23.86 30.284H22.762V35H20.494V22.706C21.046 22.586 21.634 22.508 22.258 22.472C22.882 22.424 23.44 22.4 23.932 22.4ZM24.094 24.362C23.614 24.362 23.17 24.38 22.762 24.416V28.448H23.752C24.304 28.448 24.79 28.418 25.21 28.358C25.63 28.298 25.978 28.19 26.254 28.034C26.542 27.878 26.758 27.668 26.902 27.404C27.046 27.14 27.118 26.804 27.118 26.396C27.118 26.012 27.046 25.688 26.902 25.424C26.758 25.16 26.548 24.95 26.272 24.794C26.008 24.638 25.69 24.53 25.318 24.47C24.946 24.398 24.538 24.362 24.094 24.362Z" fill="black"/>
</svg>
