<svg width="50" height="50" viewBox="0 0 50 50" fill="none" xmlns="http://www.w3.org/2000/svg">
<g clip-path="url(#clip0_616_2284)">
<path d="M48.302 24.2959L25.9092 1.71012C25.5204 1.31791 24.8872 1.31521 24.495 1.70408L1.7162 24.2898C1.32165 24.681 1.32165 25.3189 1.7162 25.7101L24.495 48.2958C24.8872 48.6847 25.5204 48.682 25.9092 48.2898L48.302 25.704C48.6885 25.3142 48.6885 24.6857 48.302 24.2959Z" fill="#FF7F7F"/>
<path fill-rule="evenodd" clip-rule="evenodd" d="M23.7909 0.993967C24.5753 0.216232 25.8417 0.221636 26.6194 1.00605L49.0121 23.5918C49.7851 24.3715 49.7851 25.6285 49.0121 26.4081L26.6194 48.9939C25.8417 49.7783 24.5753 49.7837 23.7909 49.006L24.495 48.2958L23.7909 49.006L1.01211 26.4202C0.22302 25.6378 0.223011 24.3621 1.0121 23.5797L23.7909 0.993967ZM25.1991 2.41419L2.42029 25L25.1991 47.5857L47.5918 25L25.1991 2.41419Z" fill="black"/>
<path d="M17.685 20.5C19.195 20.5 20.35 20.775 21.15 21.325C21.96 21.875 22.365 22.735 22.365 23.905C22.365 24.515 22.255 25.04 22.035 25.48C21.825 25.91 21.515 26.265 21.105 26.545C20.695 26.815 20.195 27.015 19.605 27.145C19.015 27.275 18.34 27.34 17.58 27.34H16.635V31H14.745V20.755C15.185 20.655 15.67 20.59 16.2 20.56C16.74 20.52 17.235 20.5 17.685 20.5ZM17.82 22.135C17.34 22.135 16.945 22.15 16.635 22.18V25.72H17.55C18.46 25.72 19.16 25.595 19.65 25.345C20.14 25.085 20.385 24.6 20.385 23.89C20.385 23.55 20.32 23.265 20.19 23.035C20.06 22.805 19.88 22.625 19.65 22.495C19.42 22.365 19.145 22.275 18.825 22.225C18.515 22.165 18.18 22.135 17.82 22.135Z" fill="black"/>
<path d="M26.3557 20.605C26.5757 20.985 26.8207 21.45 27.0907 22C27.3607 22.55 27.6357 23.13 27.9157 23.74C28.1957 24.34 28.4707 24.955 28.7407 25.585C29.0207 26.205 29.2757 26.78 29.5057 27.31C29.7357 26.78 29.9857 26.205 30.2557 25.585C30.5257 24.955 30.8007 24.34 31.0807 23.74C31.3607 23.13 31.6357 22.55 31.9057 22C32.1757 21.45 32.4207 20.985 32.6407 20.605H34.3507C34.4407 21.365 34.5257 22.175 34.6057 23.035C34.6857 23.885 34.7557 24.76 34.8157 25.66C34.8857 26.55 34.9457 27.45 34.9957 28.36C35.0557 29.26 35.1057 30.14 35.1457 31H33.2857C33.2457 29.79 33.1957 28.545 33.1357 27.265C33.0857 25.985 33.0057 24.745 32.8957 23.545C32.7857 23.775 32.6557 24.05 32.5057 24.37C32.3557 24.69 32.1957 25.04 32.0257 25.42C31.8557 25.79 31.6807 26.175 31.5007 26.575C31.3307 26.975 31.1607 27.365 30.9907 27.745C30.8307 28.115 30.6807 28.465 30.5407 28.795C30.4007 29.115 30.2807 29.39 30.1807 29.62H28.7707C28.6707 29.39 28.5507 29.11 28.4107 28.78C28.2707 28.45 28.1157 28.1 27.9457 27.73C27.7857 27.35 27.6157 26.96 27.4357 26.56C27.2657 26.16 27.0957 25.775 26.9257 25.405C26.7557 25.035 26.5957 24.69 26.4457 24.37C26.2957 24.04 26.1657 23.765 26.0557 23.545C25.9457 24.745 25.8607 25.985 25.8007 27.265C25.7507 28.545 25.7057 29.79 25.6657 31H23.8057C23.8457 30.14 23.8907 29.25 23.9407 28.33C24.0007 27.41 24.0607 26.5 24.1207 25.6C24.1907 24.69 24.2657 23.81 24.3457 22.96C24.4257 22.11 24.5107 21.325 24.6007 20.605H26.3557Z" fill="black"/>
</g>
<defs>
<clipPath id="clip0_616_2284">
<rect width="50" height="50" fill="white"/>
</clipPath>
</defs>
</svg>
