<svg width="50" height="50" viewBox="0 0 50 50" fill="none" xmlns="http://www.w3.org/2000/svg">
<path d="M25.8781 47.4387L44.655 31.1627C44.8741 30.9727 45 30.697 45 30.407V1.8701C45 1.31782 44.5523 0.870107 44 0.870104L25.2306 0.869995H6C5.44772 0.869995 5 1.31771 5 1.87V30.4001C5 30.6941 5.12935 30.9732 5.35366 31.1632L24.5768 47.4462C24.9531 47.7649 25.5055 47.7617 25.8781 47.4387Z" fill="#FF7F7F"/>
<path fill-rule="evenodd" clip-rule="evenodd" d="M5 0.97168C5.55228 0.97168 6 1.41939 6 1.97168V30.3994L25 46.4582L44 30.3994V1.97168C44 1.41939 44.4477 0.97168 45 0.97168C45.5523 0.97168 46 1.41939 46 1.97168V30.3994C46 30.9881 45.7406 31.5469 45.291 31.9269L26.291 47.9856C25.5456 48.6157 24.4544 48.6157 23.709 47.9856L4.70897 31.9269C4.25936 31.5469 4 30.9881 4 30.3994V1.97168C4 1.41939 4.44772 0.97168 5 0.97168Z" fill="black"/>
<path d="M15.9041 14.313C16.093 14.1132 16.3558 14 16.6308 14H33.3693C33.6442 14 33.9071 14.1132 34.096 14.313L38.3505 18.813C38.715 19.1985 38.715 19.8015 38.3505 20.187L34.096 24.687C33.9071 24.8868 33.6442 25 33.3693 25H16.6308C16.3558 25 16.093 24.8868 15.9041 24.687L11.6496 20.187C11.2851 19.8015 11.2851 19.1985 11.6496 18.813L15.9041 14.313Z" fill="black"/>
</svg>
