<svg width="50" height="50" viewBox="0 0 50 50" fill="none" xmlns="http://www.w3.org/2000/svg">
<path fill-rule="evenodd" clip-rule="evenodd" d="M38.785 26.2105H10.0102L5.18912 32.9658L9.92628 39H38.8683L44.5023 32.9565L38.785 26.2105ZM2.37586 31.8163L7.93132 24.0321C8.29976 23.5158 8.88742 23.2105 9.51271 23.2105H39.2321C39.8 23.2105 40.3399 23.4626 40.7117 23.9012L47.3035 31.6793C47.9636 32.4582 47.9366 33.622 47.2411 34.3681L40.7048 41.3795C40.3353 41.7757 39.8232 42 39.2876 42H9.45673C8.86307 42 8.3015 41.7247 7.93002 41.2515L2.43053 34.2462C1.8775 33.5418 1.85509 32.546 2.37586 31.8163Z" fill="white"/>
<path d="M26.517 23.2105V9.97554C26.517 8.88448 25.6325 8 24.5415 8C23.4504 8 22.5659 8.88448 22.5659 9.97554V23.2105H26.517Z" fill="white"/>
<circle cx="24.5" cy="32.5" r="4.5" fill="white"/>
</svg>
