<?xml version="1.0" encoding="utf-8"?>
<!-- Generator: Adobe Illustrator 24.0.0, SVG Export Plug-In . SVG Version: 6.00 Build 0)  -->
<svg version="1.1" id="icons_set" xmlns="http://www.w3.org/2000/svg" xmlns:xlink="http://www.w3.org/1999/xlink" x="0px" y="0px"
	 viewBox="0 0 50 50" style="enable-background:new 0 0 50 50;" xml:space="preserve">
<style type="text/css">
	.st0{fill:#FFFFFF;}
</style>
<title>AGI</title>
<g>
	<path class="st0" d="M41.3,23.5H8.7c-2.2,0-4,1.8-4,4v10.8c0,2.2,1.8,4,4,4h32.6c2.2,0,4-1.8,4-4V27.5
		C45.3,25.3,43.5,23.5,41.3,23.5z M28.4,35.7c-0.1,0.2-0.2,0.3-0.4,0.4c-4.8,3.3-10-2-6.4-6.8C26.4,25.8,31.7,31,28.4,35.7z"/>
	<path class="st0" d="M19,17.2c0,0.8,0.4,1.4,1,1.7c0.6,0.3,1.3,0.2,1.9-0.3l2.8-2.4v6.7h2.6v-8.6c0-0.8-0.4-1.4-1-1.7
		s-1.3-0.1-1.9,0.4l-2.8,2.4V9h0c0-0.7-0.6-1.3-1.3-1.3C19.6,7.7,19,8.3,19,9v0.4h0V17.2z"/>
</g>
</svg>
