<?xml version="1.0" encoding="utf-8"?>
<!-- Generator: Adobe Illustrator 24.0.0, SVG Export Plug-In . SVG Version: 6.00 Build 0)  -->
<svg version="1.1" id="icons_set" xmlns="http://www.w3.org/2000/svg" xmlns:xlink="http://www.w3.org/1999/xlink" x="0px" y="0px"
	 viewBox="0 0 50 50" style="enable-background:new 0 0 50 50;" xml:space="preserve">
<style type="text/css">
	.st0{fill:#FFFFFF;}
</style>
<title>Audio visual</title>
<g>
<path class="st0" fill-rule="evenodd" clip-rule="evenodd" d="M36.6145 8.01125C33.2654 7.02593 29.5042 7.48634 26.5698 9.2068C23.6208 10.9358 21.5 13.9456 21.5 18.0167L21.5 19.9078C21.5 20.4557 21.7972 20.9562 22.2696 21.2238C23.6619 22.0128 27.3936 24.1962 29.1564 25.8633C29.3856 26.08 29.6061 26.2859 29.8176 26.4835L29.8176 26.4835C30.7026 27.3102 31.4303 27.99 31.9778 28.6945C32.6338 29.5386 33 30.3834 33 31.5C33 31.9486 32.749 32.5138 32.2677 33.1562C31.797 33.7845 31.1567 34.4198 30.4945 34.9971C29.1719 36.1503 27.8223 37.02 27.7354 37.0756L27.7167 37.0879L27.7138 37.0899L23.7442 39.7362C23.2842 40.0429 22.9628 40.6376 23.1612 41.2622C23.7988 43.2692 25.9061 44.6672 29.214 44.6672C31.5291 44.6672 33.2458 43.5731 34.3695 41.9512C35.4813 40.3465 36.0096 38.2358 36.0257 36.15C36.026 36.1155 36.0294 36.0824 36.035 36.0542C36.4967 33.727 37.4225 32.4342 38.4545 31.4658C38.9264 31.0229 39.4213 30.6469 39.9303 30.2602L39.9303 30.2601L40.113 30.1212C40.6781 29.6905 41.2563 29.2373 41.7718 28.6841C43.7748 26.5343 45.9635 22.7168 45.4064 18.4825C44.7499 13.4925 41.4373 9.43009 36.6145 8.01125ZM28.652 18.1065C28.6977 17.3086 28.9375 16.7775 29.2335 16.4008C29.545 16.0042 29.9852 15.6959 30.5293 15.4649C31.6541 14.9873 32.99 14.9382 33.688 14.9729C34.3893 15.0079 35.6209 15.1886 36.5502 15.8584C36.9876 16.1737 37.3583 16.5967 37.5951 17.1942C37.8349 17.7993 37.9726 18.6738 37.7949 19.9383C37.6797 20.7587 38.2513 21.5171 39.0717 21.6324C39.892 21.7477 40.6505 21.1761 40.7658 20.3557C41.0001 18.6881 40.853 17.2723 40.3841 16.0891C39.9122 14.8981 39.1504 14.0345 38.3043 13.4247C36.6666 12.2442 34.7274 12.021 33.8372 11.9766C32.9437 11.9321 31.0843 11.97 29.3567 12.7035C28.4746 13.0781 27.5743 13.6566 26.8744 14.5475C26.1631 15.4529 25.7232 16.6002 25.6538 17.992L25.652 18.0293V18.0666V20.1238C25.652 21.4817 26.7039 22.4955 27.9157 22.6449C28.8661 22.7621 29.7767 23.0077 30.4121 23.428C30.9659 23.7941 31.3157 24.2805 31.3157 25.1331C31.3157 25.9615 31.9873 26.6331 32.8157 26.6331C33.6442 26.6331 34.3157 25.9615 34.3157 25.1331C34.3157 23.1476 33.35 21.7741 32.0668 20.9256C30.9922 20.215 29.7206 19.881 28.652 19.7182V18.1065ZM4.45582 29.4221C6.97253 27.1797 12.3175 22.9765 17.0001 23.0001C21.744 23.024 27.0781 27.3926 29.5716 29.7057C30.383 30.4584 30.3387 31.7098 29.4777 32.4051C26.9114 34.4776 21.558 38.2988 17.0001 38.2726C12.3841 38.246 7.03857 34.2643 4.49456 32.122C3.6483 31.4094 3.6298 30.1581 4.45582 29.4221ZM17.0002 36.6817C20.339 36.6817 23.0456 33.9751 23.0456 30.6363C23.0456 27.2975 20.339 24.5908 17.0002 24.5908C13.6613 24.5908 10.9547 27.2975 10.9547 30.6363C10.9547 33.9751 13.6613 36.6817 17.0002 36.6817ZM17.0002 33.468C15.4362 33.468 14.1684 32.2002 14.1684 30.6363C14.1684 29.0723 15.4362 27.8045 17.0002 27.8045C18.5641 27.8045 19.8319 29.0723 19.8319 30.6363C19.8319 32.2002 18.5641 33.468 17.0002 33.468Z" fill="white"/>
</g>
</svg>
