<?xml version="1.0" encoding="utf-8"?>
<!-- Generator: Adobe Illustrator 24.0.0, SVG Export Plug-In . SVG Version: 6.00 Build 0)  -->
<svg version="1.1" id="icons_set" xmlns="http://www.w3.org/2000/svg" xmlns:xlink="http://www.w3.org/1999/xlink" x="0px" y="0px"
	 viewBox="0 0 50 50" style="enable-background:new 0 0 50 50;" xml:space="preserve">
<style type="text/css">
	.st0{fill:#FFFFFF;}
</style>
<title>Audio</title>
<g>
<path class="st0" fill-rule="evenodd" clip-rule="evenodd" d="M30.6917 4.95659C26.9918 3.86809 22.8364 4.37692 19.5955 6.27714C16.3398 8.18594 14.0002 11.5068 14.0001 16C14 17.0961 14.3264 18.2049 14.8005 19.3148C15.2724 20.4198 15.9078 21.5635 16.5548 22.7281L16.5627 22.7424L16.563 22.7428L16.5633 22.7434C17.1582 23.8144 17.2454 24.5003 17.1467 24.9768C17.0475 25.4563 16.7393 25.8348 16.2772 26.2551C16.156 26.3653 16.0219 26.4784 15.8811 26.5972C15.0169 27.3262 13.9016 28.267 14.0008 30.0281C14.0503 30.9063 14.3306 31.5031 14.6775 32.0049C14.8165 32.2058 14.9688 32.3949 15.1092 32.5693L15.1093 32.5694L15.1879 32.6672C15.3537 32.8743 15.5048 33.0706 15.6381 33.2895C16.1357 34.1062 16.5029 35.4201 15.5192 38.8626C14.6819 41.7932 17.5239 45.5 22.5001 45.5C25.0498 45.5 26.9385 44.2952 28.1755 42.5074C29.4006 40.7369 29.9837 38.4051 29.9997 36.0982C30 36.0641 30.0033 36.0309 30.009 36.0023C30.5225 33.405 31.5554 31.9592 32.7081 30.8769C33.2343 30.3829 33.7862 29.9635 34.3512 29.5342L34.5526 29.381C35.1795 28.9032 35.8179 28.4028 36.3865 27.7926C38.6016 25.4152 41.0179 21.1972 40.403 16.5237C39.6776 11.0102 36.0182 6.52363 30.6917 4.95659ZM21.7172 16.0356C21.7774 15.1496 22.05 14.544 22.3933 14.107C22.7599 13.6403 23.2731 13.2837 23.8949 13.0197C25.1751 12.4761 26.6851 12.4223 27.4698 12.4613C28.2579 12.5006 29.6622 12.7033 30.7313 13.4739C31.2387 13.8396 31.6711 14.3328 31.9465 15.0277C32.2249 15.7303 32.3781 16.7295 32.178 18.1537C32.0628 18.9741 32.6344 19.7326 33.4547 19.8479C34.2751 19.9631 35.0336 19.3915 35.1488 18.5711C35.4056 16.7438 35.243 15.2033 34.7355 13.9225C34.225 12.6342 33.4015 11.7004 32.4855 11.0402C30.7079 9.75896 28.5959 9.51371 27.619 9.46505C26.6388 9.41623 24.6053 9.45879 22.7223 10.2584C21.7625 10.6659 20.7891 11.2927 20.0341 12.2538C19.2678 13.2293 18.7907 14.4686 18.7153 15.9807L18.7103 16.0815L18.7188 16.182L19.0165 19.6954C19.1241 20.9657 20.1423 21.8755 21.3017 21.9958C22.1983 22.0889 22.7801 22.2701 23.1676 22.5545C23.499 22.7977 23.8521 23.2369 24.0204 24.2466C24.3453 26.196 22.7167 27.5 21.5 27.5C20.6716 27.5 20 28.1716 20 29C20 29.8284 20.6716 30.5 21.5 30.5C24.2833 30.5 27.6547 27.804 26.9796 23.7534C26.7108 22.1404 26.03 20.934 24.9427 20.136C24.0253 19.4627 22.9573 19.1862 21.9729 19.0546L21.7172 16.0356Z" fill="white"/>
</g>
</svg>
