<svg width="50" height="50" viewBox="0 0 50 50" fill="none" xmlns="http://www.w3.org/2000/svg">
<path d="M36.3933 11.5781C35.7248 10.8593 34.5882 10.7939 33.8528 11.4474L31.1118 14.1266C29.8416 13.2771 28.4376 12.7543 26.9 12.493V8.70283C26.8331 7.72263 25.8972 6.93846 24.8944 7.00381C23.9584 7.06916 23.2899 7.78797 23.1562 8.70283V12.5583C21.6185 12.8197 20.2146 13.4078 18.8775 14.2573L16.0696 11.5128C15.3342 10.8593 14.1977 10.9246 13.596 11.6434C12.8606 12.2969 12.7938 13.4078 13.4623 14.1266L16.2702 16.8712C12.7938 21.5109 13.8634 28.1109 18.7438 31.509C23.6241 34.907 30.3764 33.8614 33.8528 29.0911C36.5939 25.3663 36.5939 20.3346 33.8528 16.6752L36.5939 13.9959C37.1955 13.3425 37.1287 12.2316 36.3933 11.5781Z" fill="#FF7F7F"/>
<path fill-rule="evenodd" clip-rule="evenodd" d="M3 2C3.55228 2 4 2.44772 4 3C4 18.1647 7.35354 29.0299 11.6503 36.0692C15.9813 43.1646 21.1541 46.22 24.7582 46.22C28.3708 46.22 33.6646 43.1544 38.1143 36.0589C42.5285 29.0201 46 18.1582 46 3C46 2.44772 46.4477 2 47 2C47.5523 2 48 2.44772 48 3C48 18.4556 44.4605 29.7037 39.8087 37.1214C35.1926 44.4824 29.3655 48.22 24.7582 48.22C20.1426 48.22 14.4363 44.4722 9.94315 37.1112C5.41569 29.6939 2 18.4491 2 3C2 2.44772 2.44772 2 3 2Z" fill="#7DE1FF"/>
</svg>
