<svg width="50" height="50" viewBox="0 0 50 50" fill="none" xmlns="http://www.w3.org/2000/svg">
<path d="M25.8781 1.43125L44.655 17.7073C44.8741 17.8973 45 18.173 45 18.463V46.9999C45 47.5522 44.5523 47.9999 44 47.9999L25.2306 48H6C5.44772 48 5 47.5523 5 47V18.4699C5 18.1759 5.12935 17.8968 5.35366 17.7068L24.5768 1.42384C24.9531 1.10511 25.5055 1.10826 25.8781 1.43125Z" fill="#FF7F7F"/>
<path fill-rule="evenodd" clip-rule="evenodd" d="M5 47.8983C5.55228 47.8983 6 47.4506 6 46.8983V18.4706L25 2.41184L44 18.4706V46.8983C44 47.4506 44.4477 47.8983 45 47.8983C45.5523 47.8983 46 47.4506 46 46.8983V18.4706C46 17.8819 45.7406 17.3231 45.291 16.9431L26.291 0.884346C25.5456 0.254337 24.4544 0.254337 23.709 0.884346L4.70897 16.9431C4.25936 17.3231 4 17.8819 4 18.4706V46.8983C4 47.4506 4.44772 47.8983 5 47.8983Z" fill="black"/>
<path d="M21.494 35V22.526H29.378V24.452H23.762V27.638H28.748V29.564H23.762V35H21.494Z" fill="black"/>
</svg>
