<svg width="50" height="50" viewBox="0 0 50 50" fill="none" xmlns="http://www.w3.org/2000/svg">
<path d="M44.302 20.2959L25.875 1.71012C25.4862 1.31791 24.853 1.31521 24.4608 1.70408L5.7162 20.2898C5.32165 20.681 5.32165 21.3189 5.7162 21.7101L24.4608 40.2958C24.853 40.6847 25.4862 40.682 25.875 40.2898L44.302 21.704C44.6885 21.3142 44.6885 20.6857 44.302 20.2959Z" fill="#FF7F7F"/>
<path fill-rule="evenodd" clip-rule="evenodd" d="M23.7567 0.993966C24.5411 0.216227 25.8075 0.221641 26.5852 1.00605L45.0121 19.5918C45.7851 20.3715 45.7851 21.6285 45.0121 22.4081L26.5852 40.9939C25.8075 41.7783 24.5411 41.7837 23.7567 41.006L24.4608 40.2958L23.7567 41.006L5.01211 22.4202C4.22302 21.6378 4.22302 20.3621 5.01211 19.5797L23.7567 0.993966ZM25.1649 2.41418L6.42029 21L25.1649 39.5857L43.5918 21L25.1649 2.41418Z" fill="black"/>
<path fill-rule="evenodd" clip-rule="evenodd" d="M5.40002 20C5.95231 20 6.40002 20.4477 6.40002 21V48.9053C6.40002 49.4576 5.95231 49.9053 5.40002 49.9053C4.84774 49.9053 4.40002 49.4576 4.40002 48.9053V21C4.40002 20.4477 4.84774 20 5.40002 20Z" fill="black"/>
</svg>
