<?xml version="1.0" encoding="utf-8"?>
<!-- Generator: Adobe Illustrator 24.0.0, SVG Export Plug-In . SVG Version: 6.00 Build 0)  -->
<svg version="1.1" id="icons_set" xmlns="http://www.w3.org/2000/svg" xmlns:xlink="http://www.w3.org/1999/xlink" x="0px" y="0px"
	 viewBox="0 0 50 50" style="enable-background:new 0 0 50 50;" xml:space="preserve">
<style type="text/css">
	.st0{fill:#FCFCFC;}
</style>
<title>Pirate</title>
<path id="Pirate" class="st0" d="M42,20.9c0-3.3-0.9-6.5-2.7-9.2c-2.1-2.9-5-5-8.4-6.1c-3.8-1.3-8-1.4-11.8-0.1
	c-3.5,1.1-6.6,3.3-8.6,6.3c-1.7,2.7-2.6,5.8-2.5,9c0.2,3.9,1.3,7.7,3.2,11c0.3,0.3,0.4,0.6,0.5,1c0,0.2,0,0.5,0,0.7
	c-0.1,0.8-0.2,1.6-0.1,2.4c0.1,0.7,0.4,1.4,0.9,2c0.4,0.4,0.9,0.8,1.4,1c0.4,0.2,0.9,0.2,1.3,0.2h2.1c0,1.3,0,2.6,0,3.9
	c0,0.3,0,0.7,0.1,1l0.2,0.3c0.3,0.3,0.6,0.5,1,0.5h1.5v-5.2c0-0.2,0.1-0.4,0.3-0.5c0.1-0.1,0.2-0.1,0.4-0.1c0.2,0,0.3,0.1,0.4,0.2
	c0.1,0.1,0.2,0.3,0.3,0.5v5.1h2.8v-5.1c0-0.2,0.1-0.4,0.2-0.5c0.1-0.1,0.3-0.2,0.5-0.2c0.2,0,0.3,0.1,0.4,0.2
	c0.2,0.1,0.3,0.3,0.3,0.5v5.1h2.8v-5.2c0-0.2,0.1-0.3,0.2-0.5C29,39,29.1,39,29.3,39c0.2,0,0.3,0.1,0.5,0.2c0.1,0.1,0.2,0.3,0.2,0.5
	v5.1h1.5c0.2,0,0.4-0.1,0.5-0.1c0.2-0.1,0.3-0.2,0.4-0.3c0.1-0.1,0.2-0.2,0.3-0.4c0.1-0.2,0.1-0.4,0.1-0.6c0-0.3,0-0.6,0-0.9
	c0-1.1,0-2.2,0-3.4H35c0.5,0,0.9,0,1.3-0.1c1.1-0.4,1.9-1.3,2.1-2.4c0-0.1,0-0.3,0-0.4c0.1-1.9-0.2-3.1,1-4.8
	C41.3,28.2,42.2,24.6,42,20.9z M17.6,28.1c-2.5,0-4.5-2-4.5-4.5s2-4.5,4.5-4.5s4.5,2,4.5,4.5C22.2,26.1,20.1,28.1,17.6,28.1
	L17.6,28.1z M26.6,34.6h-3.2c-0.9-0.1-1.5-0.9-1.4-1.7c0-0.3,0.2-0.6,0.4-0.9L24,30c0.4-0.6,1.3-0.7,1.8-0.3
	c0.1,0.1,0.2,0.2,0.3,0.3l1.6,2c0.6,0.6,0.6,1.6-0.1,2.2C27.4,34.5,27,34.6,26.6,34.6L26.6,34.6z M32.9,28.1c-2.5,0-4.5-2-4.5-4.5
	s2-4.5,4.5-4.5s4.5,2,4.5,4.5C37.4,26.1,35.4,28.1,32.9,28.1C32.9,28.1,32.9,28.1,32.9,28.1L32.9,28.1z"/>
</svg>
