<?xml version="1.0" encoding="utf-8"?>
<!-- Generator: Adobe Illustrator 24.0.0, SVG Export Plug-In . SVG Version: 6.00 Build 0)  -->
<svg version="1.1" id="icons_set" xmlns="http://www.w3.org/2000/svg" xmlns:xlink="http://www.w3.org/1999/xlink" x="0px" y="0px"
	 viewBox="0 0 50 50" style="enable-background:new 0 0 50 50;" xml:space="preserve">
<style type="text/css">
	.st0{fill:#FFFFFF;}
</style>
<title>General</title>
<g>
<path class="st0" fill-rule="evenodd" clip-rule="evenodd" d="M22.7517 4.5C20.9997 4.5 19.6205 5.99488 19.7614 7.74115L21.8517 33.6608C21.9354 34.6996 22.803 35.5 23.8452 35.5H26.1548C27.197 35.5 28.0645 34.6996 28.1483 33.6608L30.2386 7.74115C30.3794 5.99488 29.0002 4.5 27.2483 4.5H22.7517ZM25 46.2999C27.3196 46.2999 29.2 44.4195 29.2 42.0999C29.2 39.7803 27.3196 37.8999 25 37.8999C22.6805 37.8999 20.8 39.7803 20.8 42.0999C20.8 44.4195 22.6805 46.2999 25 46.2999Z" fill="white"/>
</g>
</svg>
