<?xml version="1.0" encoding="utf-8"?>
<!-- Generator: Adobe Illustrator 24.0.0, SVG Export Plug-In . SVG Version: 6.00 Build 0)  -->
<svg version="1.1" id="icons_set" xmlns="http://www.w3.org/2000/svg" xmlns:xlink="http://www.w3.org/1999/xlink" x="0px" y="0px"
	 viewBox="0 0 50 50" style="enable-background:new 0 0 50 50;" xml:space="preserve">
<style type="text/css">
	.st0{fill:#FFFFFF;}
</style>
<title>Visual</title>
<g>
<path class="st0" fill-rule="evenodd" clip-rule="evenodd" d="M4.43931 23.8616C7.91426 20.6486 17.0627 12.9601 25.0001 13.0002C33.0367 13.0407 42.1511 21.0159 45.5887 24.325C46.386 25.0925 46.3404 26.3414 45.4921 27.0521C41.9351 30.0322 32.738 37.0443 25.0001 36.9998C17.1682 36.9548 8.00002 29.6643 4.47937 26.5894C3.64609 25.8616 3.62699 24.6128 4.43931 23.8616ZM25.0001 34.5C30.2468 34.5 34.5001 30.2467 34.5001 25C34.5001 19.7533 30.2468 15.5 25.0001 15.5C19.7534 15.5 15.5001 19.7533 15.5001 25C15.5001 30.2467 19.7534 34.5 25.0001 34.5ZM25.0001 29.4499C22.5425 29.4499 20.5502 27.4576 20.5502 25C20.5502 22.5424 22.5425 20.5501 25.0001 20.5501C27.4577 20.5501 29.45 22.5424 29.45 25C29.45 27.4576 27.4577 29.4499 25.0001 29.4499Z"/>
</g>
</svg>
