<svg width="50" height="50" viewBox="0 0 50 50" fill="none" xmlns="http://www.w3.org/2000/svg">
<path d="M0.5 8.5C0.5 8.22386 0.723858 8 1 8H49C49.2761 8 49.5 8.22386 49.5 8.5V41.5C49.5 41.7761 49.2761 42 49 42H1C0.723857 42 0.5 41.7761 0.5 41.5V8.5Z" fill="#7DE1FF"/>
<path fill-rule="evenodd" clip-rule="evenodd" d="M2.5 10V40H47.5V10H2.5ZM1 8C0.723858 8 0.5 8.22386 0.5 8.5V41.5C0.5 41.7761 0.723857 42 1 42H49C49.2761 42 49.5 41.7761 49.5 41.5V8.5C49.5 8.22386 49.2761 8 49 8H1Z" fill="black"/>
<path fill-rule="evenodd" clip-rule="evenodd" d="M2.95546 40.2952C2.7926 40.8224 2.23343 41.1181 1.70594 40.9558C1.17807 40.7934 0.881824 40.2338 1.04424 39.7059L2.00002 40C1.04424 39.7059 1.04445 39.7052 1.04467 39.7045L1.0452 39.7028L1.04654 39.6985L1.05037 39.6864L1.06281 39.6482C1.07325 39.6167 1.08808 39.5731 1.10762 39.5183C1.14671 39.4086 1.20472 39.2538 1.28443 39.0604C1.44379 38.6737 1.69026 38.1315 2.04616 37.486C2.75764 36.1954 3.90951 34.4859 5.68138 32.7797C9.24556 29.3475 15.2453 26 25 26C34.7547 26 40.7545 29.3475 44.3187 32.7797C46.0905 34.4859 47.2424 36.1954 47.9539 37.486C48.3098 38.1315 48.5563 38.6737 48.7156 39.0604C48.7953 39.2538 48.8533 39.4086 48.8924 39.5183C48.912 39.5731 48.9268 39.6167 48.9372 39.6482L48.9497 39.6864L48.9535 39.6985L48.9548 39.7028L48.9554 39.7045C48.9556 39.7052 48.9558 39.7059 48 40L48.9558 39.7059C49.1182 40.2338 48.822 40.7934 48.2941 40.9558C47.767 41.118 47.2083 40.8228 47.0449 40.2964C47.0447 40.2956 47.0445 40.2949 47.0442 40.2941L47.9561 40.0135C47.0442 40.2941 47.0444 40.2947 47.0446 40.2952L47.0442 40.2941L47.0387 40.2772C47.0328 40.2595 47.0229 40.2301 47.0085 40.1897C46.9797 40.109 46.9332 39.9845 46.8665 39.8224C46.7329 39.4982 46.5184 39.0247 46.2024 38.4515C45.5701 37.3046 44.5345 35.7641 42.9314 34.2203C39.7456 31.1525 34.2453 28 25 28C15.7547 28 10.2545 31.1525 7.06866 34.2203C5.46553 35.7641 4.42991 37.3046 3.79764 38.4515C3.48165 39.0247 3.26719 39.4982 3.13358 39.8224C3.0668 39.9845 3.02033 40.109 2.99154 40.1897C2.97715 40.2301 2.9672 40.2595 2.96135 40.2772L2.95546 40.2952C2.95501 40.2966 2.95495 40.2968 2.95498 40.2967L2.95546 40.2952Z" fill="black"/>
</svg>
