<svg width="50" height="50" viewBox="0 0 50 50" fill="none" xmlns="http://www.w3.org/2000/svg">
<path d="M24.7582 2C16.5385 2 3 16.9453 3 47.5591L47 47.5591C47 16.9453 32.978 2 24.7582 2Z" fill="#7DE1FF"/>
<path fill-rule="evenodd" clip-rule="evenodd" d="M3 47.4783C3.55228 47.4783 4 47.0306 4 46.4783C4 31.3137 7.35351 20.3822 11.6523 13.2766C15.9875 6.11081 21.1612 3.00004 24.7582 3.00004C28.3637 3.00004 33.6583 6.12119 38.1122 13.2869C42.5285 20.3919 46 31.3201 46 46.4783C46 47.0306 46.4477 47.4783 47 47.4783C47.5523 47.4783 48 47.0306 48 46.4783C48 31.0226 44.4605 19.7117 39.8108 12.2311C35.1988 4.8111 29.3725 1.00004 24.7582 1.00004C20.1355 1.00004 14.43 4.82148 9.9411 12.2413C5.41572 19.7214 2 31.0291 2 46.4783C2 47.0306 2.44772 47.4783 3 47.4783Z" fill="black"/>
<path d="M20.494 35V22.526H28.378V24.452H22.762V27.638H27.748V29.564H22.762V35H20.494Z" fill="black"/>
</svg>
