<svg width="50" height="50" viewBox="0 0 50 50" fill="none" xmlns="http://www.w3.org/2000/svg">
<path d="M24.7582 2C16.5385 2 3 16.9453 3 47.5591L47 47.5591C47 16.9453 32.978 2 24.7582 2Z" fill="#7DE1FF"/>
<path fill-rule="evenodd" clip-rule="evenodd" d="M3 47.4783C3.55228 47.4783 4 47.0306 4 46.4783C4 31.3137 7.35351 20.3822 11.6523 13.2766C15.9875 6.11081 21.1612 3.00004 24.7582 3.00004C28.3637 3.00004 33.6583 6.12119 38.1122 13.2869C42.5285 20.3919 46 31.3201 46 46.4783C46 47.0306 46.4477 47.4783 47 47.4783C47.5523 47.4783 48 47.0306 48 46.4783C48 31.0226 44.4605 19.7117 39.8108 12.2311C35.1988 4.8111 29.3725 1.00004 24.7582 1.00004C20.1355 1.00004 14.43 4.82148 9.9411 12.2413C5.41572 19.7214 2 31.0291 2 46.4783C2 47.0306 2.44772 47.4783 3 47.4783Z" fill="black"/>
<path d="M25 35.27C24.148 35.27 23.416 35.15 22.804 34.91C22.192 34.658 21.682 34.31 21.274 33.866C20.878 33.422 20.584 32.9 20.392 32.3C20.2 31.7 20.104 31.04 20.104 30.32V22.526H22.39V30.104C22.39 30.668 22.45 31.154 22.57 31.562C22.702 31.958 22.882 32.282 23.11 32.534C23.35 32.786 23.626 32.972 23.938 33.092C24.262 33.212 24.622 33.272 25.018 33.272C25.414 33.272 25.774 33.212 26.098 33.092C26.422 32.972 26.698 32.786 26.926 32.534C27.166 32.282 27.346 31.958 27.466 31.562C27.598 31.154 27.664 30.668 27.664 30.104V22.526H29.95V30.32C29.95 31.04 29.848 31.7 29.644 32.3C29.452 32.9 29.152 33.422 28.744 33.866C28.348 34.31 27.838 34.658 27.214 34.91C26.59 35.15 25.852 35.27 25 35.27Z" fill="black"/>
</svg>
