<svg width="50" height="50" viewBox="0 0 50 50" fill="none" xmlns="http://www.w3.org/2000/svg">
<path d="M24.7582 2C16.5385 2 3 16.9453 3 47.5591L47 47.5591C47 16.9453 32.978 2 24.7582 2Z" fill="#7DE1FF"/>
<path fill-rule="evenodd" clip-rule="evenodd" d="M3 47.4783C3.55228 47.4783 4 47.0306 4 46.4783C4 31.3137 7.35351 20.3822 11.6523 13.2766C15.9875 6.11081 21.1612 3.00004 24.7582 3.00004C28.3637 3.00004 33.6583 6.12119 38.1122 13.2869C42.5285 20.3919 46 31.3201 46 46.4783C46 47.0306 46.4477 47.4783 47 47.4783C47.5523 47.4783 48 47.0306 48 46.4783C48 31.0226 44.4605 19.7117 39.8108 12.2311C35.1988 4.8111 29.3725 1.00004 24.7582 1.00004C20.1355 1.00004 14.43 4.82148 9.9411 12.2413C5.41572 19.7214 2 31.0291 2 46.4783C2 47.0306 2.44772 47.4783 3 47.4783Z" fill="black"/>
<path d="M23.932 22.4C25.732 22.4 27.106 22.73 28.054 23.39C29.014 24.05 29.494 25.058 29.494 26.414C29.494 28.106 28.66 29.252 26.992 29.852C27.22 30.128 27.478 30.464 27.766 30.86C28.054 31.256 28.348 31.688 28.648 32.156C28.948 32.612 29.236 33.086 29.512 33.578C29.788 34.058 30.034 34.532 30.25 35H27.712C27.484 34.568 27.238 34.136 26.974 33.704C26.71 33.26 26.44 32.834 26.164 32.426C25.9 32.006 25.636 31.616 25.372 31.256C25.108 30.884 24.862 30.554 24.634 30.266C24.466 30.278 24.322 30.284 24.202 30.284C24.082 30.284 23.968 30.284 23.86 30.284H22.762V35H20.494V22.706C21.046 22.586 21.634 22.508 22.258 22.472C22.882 22.424 23.44 22.4 23.932 22.4ZM24.094 24.362C23.614 24.362 23.17 24.38 22.762 24.416V28.448H23.752C24.304 28.448 24.79 28.418 25.21 28.358C25.63 28.298 25.978 28.19 26.254 28.034C26.542 27.878 26.758 27.668 26.902 27.404C27.046 27.14 27.118 26.804 27.118 26.396C27.118 26.012 27.046 25.688 26.902 25.424C26.758 25.16 26.548 24.95 26.272 24.794C26.008 24.638 25.69 24.53 25.318 24.47C24.946 24.398 24.538 24.362 24.094 24.362Z" fill="black"/>
</svg>
