<svg width="50" height="50" viewBox="0 0 50 50" fill="none" xmlns="http://www.w3.org/2000/svg">
<g clip-path="url(#clip0_616_2315)">
<path d="M50 25C50 38.8071 38.8071 50 25 50C11.1929 50 0 38.8071 0 25C0 11.1929 11.1929 0 25 0C38.8071 0 50 11.1929 50 25Z" fill="#7DE1FF"/>
<path fill-rule="evenodd" clip-rule="evenodd" d="M25 48C37.7025 48 48 37.7025 48 25C48 12.2975 37.7025 2 25 2C12.2975 2 2 12.2975 2 25C2 37.7025 12.2975 48 25 48ZM25 50C38.8071 50 50 38.8071 50 25C50 11.1929 38.8071 0 25 0C11.1929 0 0 11.1929 0 25C0 38.8071 11.1929 50 25 50Z" fill="black"/>
<path d="M16.553 29.232C16.6777 29.2433 16.842 29.2546 17.046 29.266C17.25 29.266 17.5277 29.266 17.879 29.266C19.3183 29.266 20.3893 28.9033 21.092 28.178C21.806 27.4413 22.163 26.4156 22.163 25.101C22.163 23.7636 21.8173 22.738 21.126 22.024C20.4347 21.31 19.3637 20.953 17.913 20.953C17.2783 20.953 16.825 20.97 16.553 21.004V29.232ZM24.407 25.101C24.407 26.121 24.2483 27.0106 23.931 27.77C23.6137 28.518 23.1603 29.147 22.571 29.657C21.993 30.1556 21.2903 30.5296 20.463 30.779C19.647 31.017 18.7403 31.136 17.743 31.136C17.267 31.136 16.7287 31.1133 16.128 31.068C15.5273 31.034 14.955 30.9546 14.411 30.83V19.389C14.955 19.2643 15.533 19.185 16.145 19.151C16.757 19.117 17.301 19.1 17.777 19.1C18.763 19.1 19.664 19.219 20.48 19.457C21.296 19.6836 21.993 20.0463 22.571 20.545C23.1603 21.0323 23.6137 21.6556 23.931 22.415C24.2483 23.163 24.407 24.0583 24.407 25.101Z" fill="black"/>
<path d="M29.058 29.232C29.1826 29.2433 29.347 29.2546 29.551 29.266C29.755 29.266 30.0326 29.266 30.384 29.266C31.8233 29.266 32.8943 28.9033 33.597 28.178C34.311 27.4413 34.668 26.4156 34.668 25.101C34.668 23.7636 34.3223 22.738 33.631 22.024C32.9396 21.31 31.8686 20.953 30.418 20.953C29.7833 20.953 29.33 20.97 29.058 21.004V29.232ZM36.912 25.101C36.912 26.121 36.7533 27.0106 36.436 27.77C36.1186 28.518 35.6653 29.147 35.076 29.657C34.498 30.1556 33.7953 30.5296 32.968 30.779C32.152 31.017 31.2453 31.136 30.248 31.136C29.772 31.136 29.2336 31.1133 28.633 31.068C28.0323 31.034 27.46 30.9546 26.916 30.83V19.389C27.46 19.2643 28.038 19.185 28.65 19.151C29.262 19.117 29.806 19.1 30.282 19.1C31.268 19.1 32.169 19.219 32.985 19.457C33.801 19.6836 34.498 20.0463 35.076 20.545C35.6653 21.0323 36.1186 21.6556 36.436 22.415C36.7533 23.163 36.912 24.0583 36.912 25.101Z" fill="black"/>
</g>
<defs>
<clipPath id="clip0_616_2315">
<rect width="50" height="50" fill="white"/>
</clipPath>
</defs>
</svg>
