<svg width="50" height="50" viewBox="0 0 50 50" fill="none" xmlns="http://www.w3.org/2000/svg">
<path d="M0.5 8.5C0.5 8.22386 0.723858 8 1 8H49C49.2761 8 49.5 8.22386 49.5 8.5V41.5C49.5 41.7761 49.2761 42 49 42H1C0.723857 42 0.5 41.7761 0.5 41.5V8.5Z" fill="#7DE1FF"/>
<path fill-rule="evenodd" clip-rule="evenodd" d="M2.5 10V40H47.5V10H2.5ZM1 8C0.723858 8 0.5 8.22386 0.5 8.5V41.5C0.5 41.7761 0.723857 42 1 42H49C49.2761 42 49.5 41.7761 49.5 41.5V8.5C49.5 8.22386 49.2761 8 49 8H1Z" fill="black"/>
<path fill-rule="evenodd" clip-rule="evenodd" d="M48.8376 9.45373C48.5359 8.99113 47.9163 8.86069 47.4537 9.16238L1.45374 39.1624C0.991138 39.4641 0.860703 40.0837 1.1624 40.5463C1.46409 41.0089 2.08368 41.1393 2.54628 40.8376L48.5463 10.8376C49.0089 10.5359 49.1393 9.91633 48.8376 9.45373Z" fill="black"/>
<path fill-rule="evenodd" clip-rule="evenodd" d="M1.16238 9.45373C1.46408 8.99113 2.08366 8.86069 2.54626 9.16238L48.5463 39.1624C49.0089 39.4641 49.1393 40.0837 48.8376 40.5463C48.5359 41.0089 47.9163 41.1393 47.4537 40.8376L1.45373 10.8376C0.991126 10.5359 0.860688 9.91633 1.16238 9.45373Z" fill="black"/>
<path fill-rule="evenodd" clip-rule="evenodd" d="M10 25C10 20.5817 13.5817 17 18 17H32C36.4183 17 40 20.5817 40 25C40 29.4183 36.4183 33 32 33H18C13.5817 33 10 29.4183 10 25ZM18 19C14.6863 19 12 21.6863 12 25C12 28.3137 14.6863 31 18 31H32C35.3137 31 38 28.3137 38 25C38 21.6863 35.3137 19 32 19H18Z" fill="black"/>
</svg>
