<svg width="50" height="50" viewBox="0 0 50 50" fill="none" xmlns="http://www.w3.org/2000/svg">
<path d="M24.7582 48C16.5385 48 3 33.0547 3 2.44092L47 2.44092C47 33.0547 32.978 48 24.7582 48Z" fill="#7DE1FF"/>
<path fill-rule="evenodd" clip-rule="evenodd" d="M3 2.52173C3.55228 2.52173 4 2.96944 4 3.52173C4 18.6863 7.35351 29.6178 11.6523 36.7234C15.9875 43.8892 21.1612 47 24.7582 47C28.3637 47 33.6583 43.8788 38.1122 36.7131C42.5285 29.6081 46 18.6799 46 3.52173C46 2.96944 46.4477 2.52173 47 2.52173C47.5523 2.52173 48 2.96944 48 3.52173C48 18.9774 44.4605 30.2883 39.8108 37.7689C35.1988 45.1889 29.3725 49 24.7582 49C20.1355 49 14.43 45.1785 9.9411 37.7587C5.41572 30.2786 2 18.9709 2 3.52173C2 2.96944 2.44772 2.52173 3 2.52173Z" fill="black"/>
<path d="M15.9041 14.313C16.093 14.1132 16.3558 14 16.6308 14H33.3693C33.6442 14 33.9071 14.1132 34.096 14.313L38.3505 18.813C38.715 19.1985 38.715 19.8015 38.3505 20.187L34.096 24.687C33.9071 24.8868 33.6442 25 33.3693 25H16.6308C16.3558 25 16.093 24.8868 15.9041 24.687L11.6496 20.187C11.2851 19.8015 11.2851 19.1985 11.6496 18.813L15.9041 14.313Z" fill="black"/>
</svg>
