<svg width="50" height="50" viewBox="0 0 50 50" fill="none" xmlns="http://www.w3.org/2000/svg">
<path d="M24.7582 2C16.5385 2 3 16.9453 3 47.5591L47 47.5591C47 16.9453 32.978 2 24.7582 2Z" fill="#7DE1FF"/>
<path fill-rule="evenodd" clip-rule="evenodd" d="M3 47.4783C3.55228 47.4783 4 47.0306 4 46.4783C4 31.3137 7.35351 20.3822 11.6523 13.2766C15.9875 6.11081 21.1612 3.00004 24.7582 3.00004C28.3637 3.00004 33.6583 6.12119 38.1122 13.2869C42.5285 20.3919 46 31.3201 46 46.4783C46 47.0306 46.4477 47.4783 47 47.4783C47.5523 47.4783 48 47.0306 48 46.4783C48 31.0226 44.4605 19.7117 39.8108 12.2311C35.1988 4.8111 29.3725 1.00004 24.7582 1.00004C20.1355 1.00004 14.43 4.82148 9.9411 12.2413C5.41572 19.7214 2 31.0291 2 46.4783C2 47.0306 2.44772 47.4783 3 47.4783Z" fill="black"/>
<path d="M24.256 35.144C23.596 35.144 22.93 35.12 22.258 35.072C21.586 35.036 20.998 34.952 20.494 34.82V22.706C20.758 22.658 21.04 22.616 21.34 22.58C21.64 22.532 21.946 22.496 22.258 22.472C22.57 22.448 22.876 22.43 23.176 22.418C23.488 22.406 23.782 22.4 24.058 22.4C24.814 22.4 25.516 22.46 26.164 22.58C26.812 22.688 27.37 22.874 27.838 23.138C28.318 23.402 28.69 23.75 28.954 24.182C29.218 24.614 29.35 25.148 29.35 25.784C29.35 26.372 29.206 26.876 28.918 27.296C28.642 27.716 28.252 28.052 27.748 28.304C28.504 28.556 29.062 28.928 29.422 29.42C29.782 29.912 29.962 30.536 29.962 31.292C29.962 32.576 29.494 33.542 28.558 34.19C27.622 34.826 26.188 35.144 24.256 35.144ZM22.726 29.384V33.182C22.978 33.206 23.248 33.224 23.536 33.236C23.824 33.248 24.088 33.254 24.328 33.254C24.796 33.254 25.228 33.224 25.624 33.164C26.032 33.104 26.38 33.002 26.668 32.858C26.968 32.702 27.202 32.498 27.37 32.246C27.55 31.994 27.64 31.67 27.64 31.274C27.64 30.566 27.382 30.074 26.866 29.798C26.35 29.522 25.636 29.384 24.724 29.384H22.726ZM22.726 27.602H24.328C25.192 27.602 25.87 27.482 26.362 27.242C26.854 26.99 27.1 26.546 27.1 25.91C27.1 25.31 26.842 24.884 26.326 24.632C25.822 24.38 25.162 24.254 24.346 24.254C23.998 24.254 23.686 24.26 23.41 24.272C23.146 24.284 22.918 24.302 22.726 24.326V27.602Z" fill="black"/>
</svg>
