<svg width="50" height="50" viewBox="0 0 50 50" fill="none" xmlns="http://www.w3.org/2000/svg">
<path fill-rule="evenodd" clip-rule="evenodd" d="M5 0.97168C5.55228 0.97168 6 1.41939 6 1.97168V30.3994L25 46.4582L44 30.3994V1.97168C44 1.41939 44.4477 0.97168 45 0.97168C45.5523 0.97168 46 1.41939 46 1.97168V30.3994C46 30.9881 45.7406 31.5469 45.291 31.9269L26.291 47.9856C25.5456 48.6157 24.4544 48.6157 23.709 47.9856L4.70897 31.9269C4.25936 31.5469 4 30.9881 4 30.3994V1.97168C4 1.41939 4.44772 0.97168 5 0.97168Z" fill="#FF7F7F"/>
<path d="M36.3933 11.5781C35.7248 10.8593 34.5882 10.7939 33.8528 11.4474L31.1118 14.1266C29.8416 13.2771 28.4376 12.7543 26.9 12.493V8.70283C26.8331 7.72263 25.8972 6.93846 24.8944 7.00381C23.9584 7.06916 23.2899 7.78797 23.1562 8.70283V12.5583C21.6185 12.8197 20.2146 13.4078 18.8775 14.2573L16.0696 11.5128C15.3342 10.8593 14.1977 10.9246 13.596 11.6434C12.8606 12.2969 12.7938 13.4078 13.4623 14.1266L16.2702 16.8712C12.7938 21.5109 13.8634 28.1109 18.7438 31.509C23.6241 34.907 30.3764 33.8614 33.8528 29.0911C36.5939 25.3663 36.5939 20.3346 33.8528 16.6752L36.5939 13.9959C37.1955 13.3425 37.1287 12.2316 36.3933 11.5781Z" fill="#FF7F7F"/>
</svg>
