<svg width="50" height="50" viewBox="0 0 50 50" fill="none" xmlns="http://www.w3.org/2000/svg">
<g clip-path="url(#clip0_616_2287)">
<path d="M48.2929 24.2929L25.7071 1.70708C25.3166 1.31655 24.6834 1.31655 24.2929 1.70708L1.70708 24.2929C1.31655 24.6834 1.31655 25.3166 1.70708 25.7071L24.2929 48.2929C24.6834 48.6834 25.3166 48.6834 25.7071 48.2929L48.2929 25.7071C48.6834 25.3166 48.6834 24.6834 48.2929 24.2929Z" fill="#FF7F7F"/>
<path fill-rule="evenodd" clip-rule="evenodd" d="M23.5858 0.999971C24.3668 0.21892 25.6331 0.218925 26.4142 0.999971L49 23.5858C49.781 24.3668 49.781 25.6331 49 26.4142L26.4142 49C25.6331 49.781 24.3668 49.781 23.5858 49L0.999971 26.4142C0.21892 25.6331 0.218925 24.3668 0.999971 23.5858L23.5858 0.999971ZM25 2.41418L2.41418 25L25 47.5858L47.5858 25L25 2.41418Z" fill="black"/>
<path d="M25.292 32.0835V33.3915H22.736V40.3995H21.212V33.3915H18.656V32.0835H25.292Z" fill="black"/>
<path d="M26.4452 40.3995V32.0835H31.7012V33.3675H27.9572V35.4915H31.2812V36.7755H27.9572V40.3995H26.4452Z" fill="black"/>
<path d="M20.0629 19.3767L23.561 15.3447C23.7509 15.1257 24.0265 15 24.3164 15H25.5074C25.7893 15 26.0581 15.119 26.2476 15.3276L29.9221 19.3727C30.0893 19.5567 30.1819 19.7964 30.1819 20.045V28.3995C30.1819 28.9518 29.7342 29.3995 29.1819 29.3995H20.8182C20.266 29.3995 19.8182 28.9518 19.8182 28.3995V20.032C19.8182 19.7912 19.9051 19.5585 20.0629 19.3767Z" fill="black"/>
<path fill-rule="evenodd" clip-rule="evenodd" d="M20.8824 15.0037C21.1785 15.2933 21.1837 15.7682 20.8941 16.0643L16.3213 20.7387C16.2756 20.7854 16.25 20.8481 16.25 20.9135V28.4944C16.25 28.9086 15.9142 29.2444 15.5 29.2444C15.0858 29.2444 14.75 28.9086 14.75 28.4944V20.9135C14.75 20.456 14.9291 20.0167 15.249 19.6897L19.8218 15.0153C20.1115 14.7192 20.5863 14.714 20.8824 15.0037Z" fill="black"/>
<path fill-rule="evenodd" clip-rule="evenodd" d="M29.1176 15.0037C28.8215 15.2933 28.8163 15.7682 29.1059 16.0643L33.6787 20.7387C33.7244 20.7854 33.75 20.8481 33.75 20.9135V28.2331C33.75 28.6473 34.0858 28.9831 34.5 28.9831C34.9142 28.9831 35.25 28.6473 35.25 28.2331V20.9135C35.25 20.456 35.0709 20.0167 34.751 19.6897L30.1782 15.0153C29.8885 14.7192 29.4137 14.714 29.1176 15.0037Z" fill="black"/>
</g>
<defs>
<clipPath id="clip0_616_2287">
<rect width="50" height="50" fill="white"/>
</clipPath>
</defs>
</svg>
