<svg width="50" height="50" viewBox="0 0 50 50" fill="none" xmlns="http://www.w3.org/2000/svg">
<g clip-path="url(#clip0_616_2329)">
<path d="M48.2929 24.2929L25.7071 1.70708C25.3166 1.31655 24.6834 1.31655 24.2929 1.70708L1.70708 24.2929C1.31655 24.6834 1.31655 25.3166 1.70708 25.7071L24.2929 48.2929C24.6834 48.6834 25.3166 48.6834 25.7071 48.2929L48.2929 25.7071C48.6834 25.3166 48.6834 24.6834 48.2929 24.2929Z" fill="#FF7F7F"/>
<path fill-rule="evenodd" clip-rule="evenodd" d="M23.5858 0.999971C24.3668 0.21892 25.6331 0.218925 26.4142 0.999971L49 23.5858C49.781 24.3668 49.781 25.6331 49 26.4142L26.4142 49C25.6331 49.781 24.3668 49.781 23.5858 49L0.999971 26.4142C0.21892 25.6331 0.218925 24.3668 0.999971 23.5858L23.5858 0.999971ZM25 2.41418L2.41418 25L25 47.5858L47.5858 25L25 2.41418Z" fill="black"/>
<path fill-rule="evenodd" clip-rule="evenodd" d="M39.8376 15.3234C39.5359 14.8608 38.9163 14.7303 38.4537 15.032L10.4537 33.2929C9.99114 33.5946 9.8607 34.2142 10.1624 34.6768C10.4641 35.1394 11.0837 35.2698 11.5463 34.9681L39.5463 16.7072C40.0089 16.4055 40.1393 15.786 39.8376 15.3234Z" fill="black"/>
<path fill-rule="evenodd" clip-rule="evenodd" d="M10.3623 15.4538C10.664 14.9912 11.2836 14.8608 11.7462 15.1625L39.5462 33.2929C40.0088 33.5946 40.1392 34.2142 39.8376 34.6768C39.5359 35.1394 38.9163 35.2699 38.4537 34.9682L10.6537 16.8377C10.1911 16.536 10.0606 15.9164 10.3623 15.4538Z" fill="black"/>
<path fill-rule="evenodd" clip-rule="evenodd" d="M10 25C10 20.5817 13.5817 17 18 17H32C36.4183 17 40 20.5817 40 25C40 29.4183 36.4183 33 32 33H18C13.5817 33 10 29.4183 10 25ZM18 19C14.6863 19 12 21.6863 12 25C12 28.3137 14.6863 31 18 31H32C35.3137 31 38 28.3137 38 25C38 21.6863 35.3137 19 32 19H18Z" fill="black"/>
</g>
<defs>
<clipPath id="clip0_616_2329">
<rect width="50" height="50" fill="white"/>
</clipPath>
</defs>
</svg>
