<svg width="50" height="50" viewBox="0 0 50 50" fill="none" xmlns="http://www.w3.org/2000/svg">
<path fill-rule="evenodd" clip-rule="evenodd" d="M47.3266 31.6963L40.734 23.9174C40.354 23.4691 39.796 23.2105 39.2083 23.2105H26.5257V9.97554C26.5257 8.88448 25.6412 8 24.5501 8C23.4591 8 22.5746 8.88448 22.5746 9.97554V23.2105H9.55603C8.90984 23.2105 8.30347 23.5227 7.9281 24.0487L2.37207 31.8337C1.85639 32.5563 1.8787 33.5323 2.42686 34.2305L7.92572 41.235C8.30487 41.718 8.88485 42 9.49886 42H39.2651C39.8199 42 40.3497 41.7696 40.728 41.3638L47.2637 34.3531C47.9551 33.6115 47.9821 32.4698 47.3266 31.6963ZM24.5 37C26.9853 37 29 34.9853 29 32.5C29 30.0147 26.9853 28 24.5 28C22.0147 28 20 30.0147 20 32.5C20 34.9853 22.0147 37 24.5 37Z" fill="white"/>
</svg>
