<svg width="50" height="50" viewBox="0 0 50 50" fill="none" xmlns="http://www.w3.org/2000/svg">
<path d="M24.025 16.7467H16.1185V38.639H10.8002V16.7467H3V12.361H24.025V16.7467Z" fill="white"/>
<path d="M47 35.3182C46.0427 36.4853 44.6895 37.3937 42.9404 38.0434C41.1912 38.6811 39.253 39 37.1257 39C34.892 39 32.9302 38.5067 31.2401 37.5201C29.5619 36.5214 28.2619 35.0775 27.34 33.1885C26.43 31.2995 25.9632 29.0795 25.9396 26.5287V24.742C25.9396 22.119 26.3709 19.8509 27.2337 17.9378C28.1082 16.0127 29.361 14.5448 30.9919 13.5341C32.6347 12.5114 34.5552 12 36.7534 12C39.8144 12 42.2076 12.746 43.9331 14.238C45.6586 15.7179 46.6809 17.8777 47 20.7172H41.8235C41.5872 19.2132 41.0612 18.1123 40.2458 17.4144C39.4421 16.7166 38.3312 16.3676 36.913 16.3676C35.1048 16.3676 33.7279 17.0595 32.7824 18.4432C31.837 19.8269 31.3583 21.8844 31.3465 24.6156V26.2941C31.3465 29.0495 31.8606 31.131 32.8888 32.5388C33.917 33.9465 35.4239 34.6504 37.4093 34.6504C39.4067 34.6504 40.8308 34.2172 41.6817 33.3509V28.8209H36.8421V24.8322H47V35.3182Z" fill="white"/>
</svg>
